<svg xmlns="http://www.w3.org/2000/svg" width="33.166" height="33.109" viewBox="0 0 33.166 33.109"><defs><style>.a{fill:#333;}</style></defs><g transform="translate(0 0)"><path class="a" d="M58.868,448.955c1.256-.1,1.682-.768,1.667-2.021-.013-1.044-.439-1.592-1.708-1.687-1.706-.129-3.427-.067-5.143-.083-.023,0-.049.039-.1.083v3.742C55.384,448.989,57.134,449.087,58.868,448.955Z" transform="translate(-47.841 -433.233)"/><path class="a" d="M59.1,447.929a26.944,26.944,0,0,0-2.964-.119c-.837-.016-1.677,0-2.543,0v4.768c.907,0,1.765.01,2.623-.005.923-.016,1.853,0,2.768-.1a2.1,2.1,0,0,0,1.917-2.253C60.927,448.86,60.387,448.1,59.1,447.929Z" transform="translate(-47.825 -429.049)"/><path class="a" d="M82.726,440.6a.418.418,0,0,1-.106-.057H53.268a8.724,8.724,0,0,0-.9.457,2.133,2.133,0,0,0-.943,1.507.381.381,0,0,1-.059.1v28.972a8.157,8.157,0,0,0,.295.8,2.3,2.3,0,0,0,1.46,1.191,1.235,1.235,0,0,1,.152.08H82.62a6.342,6.342,0,0,0,.892-.442,2.163,2.163,0,0,0,1.008-1.853q0-14.249.008-28.5A2.431,2.431,0,0,0,82.726,440.6Zm-11.089,9.8h7.678v1.739H71.637Zm-7.908,16.552a21.643,21.643,0,0,1-2.716.189c-2.266.026-4.535.008-6.8.008h-.584V449.423a2.03,2.03,0,0,1,.323-.046c2.9,0,5.794-.018,8.688.018a5.57,5.57,0,0,1,3.385,1.085,4.509,4.509,0,0,1,.693,6.14,8.806,8.806,0,0,1-1.217,1.005,3.867,3.867,0,0,1,2.365,2.341A5.207,5.207,0,0,1,63.729,466.954Zm11.841-2.16a2.851,2.851,0,0,0,2.894-1.318.446.446,0,0,1,.318-.168c1.057-.013,2.114-.008,3.316-.008a9.629,9.629,0,0,1-.512,1.259,5.988,5.988,0,0,1-4.964,2.99,7.464,7.464,0,0,1-4.737-1.1,5.239,5.239,0,0,1-2.388-3.274,9.871,9.871,0,0,1,.052-5.145,5.989,5.989,0,0,1,5.675-4.378,7.3,7.3,0,0,1,3.843.755,5.862,5.862,0,0,1,3.042,4.613c.111.8.1,1.61.152,2.5H72.7A2.947,2.947,0,0,0,75.57,464.794Z" transform="translate(-51.361 -440.546)"/><path class="a" d="M62.619,446.7a2.784,2.784,0,0,0-2.964,2.791H65.47A2.705,2.705,0,0,0,62.619,446.7Z" transform="translate(-38.222 -430.797)"/></g></svg>