<?xml version="1.0" encoding="utf-8"?>
<!-- Generator: Adobe Illustrator 25.1.0, SVG Export Plug-In . SVG Version: 6.00 Build 0)  -->
<svg version="1.1" id="Layer_1" xmlns="http://www.w3.org/2000/svg" xmlns:xlink="http://www.w3.org/1999/xlink" x="0px" y="0px"
	 viewBox="0 0 35 35" style="enable-background:new 0 0 35 35;" xml:space="preserve">
<style type="text/css">
	.st0{fill:#E777ED;}
</style>
<g>
	<path class="st0" d="M35,2.3V0h0v0h-2.3v0H2.4v0H0v0h0v2.3h0v30.3h0V35h0v0h2.3v0h30.3v0H35v0h0v-2.3h0L35,2.3L35,2.3z M28.3,11.1
		v1.6H21v-1.6H28.3z M14.7,26.5c-0.4,0.1-0.7,0.2-1,0.3C12.7,27,11.8,27,11,27c-2.2,0-4.3,0-6.4,0H3.9V10.2c0.1,0,0.2,0,0.3,0
		c2.7,0,5.5,0,8.2,0c1.1,0,2.3,0.4,3.2,1c1.7,1.4,2,4,0.7,5.8c-0.4,0.4-0.8,0.7-1.1,0.9c1,0.4,1.9,1.1,2.3,2.2
		C18.4,22.7,17.2,25.6,14.7,26.5z M24.5,24.8c0.1,0,0.2,0,0.3,0c1,0.2,2.2-0.3,2.7-1.2c0.1-0.1,0.2-0.2,0.3-0.2c1,0,2,0,3.1,0
		c-0.1,0.4-0.3,0.9-0.5,1.2c-0.9,1.7-2.7,2.7-4.7,2.8c-1.6,0.2-3.1-0.2-4.5-1c-1.1-0.7-2-1.8-2.3-3.1c-0.4-1.6-0.4-3.3,0.1-4.8
		c0.7-2.5,2.8-4.1,5.4-4.2c1.2-0.1,2.6,0.2,3.6,0.8c1.6,0.9,2.7,2.6,2.8,4.4c0.1,0.8,0.1,1.5,0.2,2.4h-9.1
		C21.9,23.2,22.9,24.6,24.5,24.8z"/>
	<path class="st0" d="M12.2,16.7c1.2-0.1,1.6-0.8,1.6-1.9c0-0.9-0.4-1.5-1.6-1.6c-1.6-0.1-3.2-0.1-4.8-0.1c0,0,0,0-0.1,0.1v3.5
		C9,16.7,10.6,16.8,12.2,16.7z"/>
	<path class="st0" d="M12.5,19.7c-0.9-0.1-1.9-0.1-2.8-0.1c-0.8,0-1.6,0-2.4,0v4.6c0.9,0,1.7,0,2.5,0c0.9,0,1.8,0,2.7-0.1
		c1-0.1,1.9-1,1.8-2.2C14.2,20.5,13.7,19.9,12.5,19.7z"/>
	<path class="st0" d="M25.2,16.8c-0.1,0-0.2,0-0.2,0c-1.4-0.1-2.7,1-2.8,2.5c0,0.1,0,0.1,0,0.2h5.5C27.6,18.1,26.5,16.9,25.2,16.8z"
		/>
</g>
</svg>
