<?xml version="1.0" encoding="utf-8"?>
<!-- Generator: Adobe Illustrator 25.1.0, SVG Export Plug-In . SVG Version: 6.00 Build 0)  -->
<svg version="1.1" id="Layer_1" xmlns="http://www.w3.org/2000/svg" xmlns:xlink="http://www.w3.org/1999/xlink" x="0px" y="0px"
	 viewBox="0 0 35 35" style="enable-background:new 0 0 35 35;" xml:space="preserve">
<style type="text/css">
	.st0{fill:#E777ED;}
</style>
<path class="st0" d="M30.8,0H4.2H0v4.2v26.5V35h4.2h26.5H35v-4.2V4.2V0H30.8z M24.3,21.1c0-0.7-0.1-1.3-0.2-1.9c0-0.1,0-0.1,0-0.2
	c-0.3-1.2-1.5-1.9-2.7-1.6c-1.3,0.1-2.3,1.1-2.4,2.4c-0.1,0.5-0.1,1-0.1,1.5c0,2.5,0,5.1,0,7.6v0.3h-4.9V13.4h4.7v2.2
	c0.2-0.3,0.4-0.5,0.6-0.8c0.8-0.9,1.8-1.5,3-1.7c1.3-0.2,2.7-0.1,3.9,0.4c1.3,0.5,2.3,1.7,2.7,3.1c0.3,1.2,0.5,2.4,0.4,3.7
	c0,2.9,0,5.8,0,8.7c0,0.1,0,0.1,0,0.2h-4.9v-0.3C24.3,26.2,24.3,23.7,24.3,21.1z M8.3,11.2c-1.6,0-2.9-1.3-2.9-2.8
	c0-1.6,1.3-2.9,2.8-2.9v0c0,0,0,0,0,0c1.6,0,2.8,1.3,2.8,2.8c0,0,0,0,0,0C11.2,9.9,9.9,11.2,8.3,11.2z M10.8,13.4v15.8l-4.9,0V13.4
	H10.8z"/>
</svg>
