<svg xmlns="http://www.w3.org/2000/svg" width="33.166" height="33.114" viewBox="0 0 33.166 33.114"><defs><style>.a{fill:#333;}</style></defs><g transform="translate(0)"><path class="a" d="M51.361,451.039V422.065a.383.383,0,0,0,.059-.1,2.132,2.132,0,0,1,.943-1.507,8.973,8.973,0,0,1,.9-.46H82.622a.429.429,0,0,0,.106.059,2.421,2.421,0,0,1,1.8,2.259q-.012,14.25-.005,28.5a2.164,2.164,0,0,1-1.008,1.856,6.5,6.5,0,0,1-.892.442H53.268a.774.774,0,0,0-.152-.08,2.311,2.311,0,0,1-1.46-1.191A8.422,8.422,0,0,1,51.361,451.039ZM69.23,448.2v-.349c0-2.54-.008-5.083.005-7.624a8.606,8.606,0,0,1,.114-1.46,2.538,2.538,0,0,1,2.385-2.406,2.256,2.256,0,0,1,2.773,1.845,9.771,9.771,0,0,1,.2,1.938c.021,2.579.008,5.156.008,7.735v.31h4.908c.005-.093.01-.163.01-.235q0-4.33,0-8.658a13.11,13.11,0,0,0-.445-3.683,4.477,4.477,0,0,0-2.665-3.13,7.151,7.151,0,0,0-3.928-.367,4.966,4.966,0,0,0-3.011,1.7c-.189.22-.349.468-.571.768v-2.163H64.327V448.2Zm-8.025-.005V432.421H56.313V448.2Zm-2.45-23.648a2.851,2.851,0,1,0,2.853,2.84A2.833,2.833,0,0,0,58.755,424.551Z" transform="translate(-51.361 -419.995)"/></g></svg>