<?xml version="1.0" encoding="utf-8"?>
<!-- Generator: Adobe Illustrator 25.1.0, SVG Export Plug-In . SVG Version: 6.00 Build 0)  -->
<svg version="1.1" id="Layer_1" xmlns="http://www.w3.org/2000/svg" xmlns:xlink="http://www.w3.org/1999/xlink" x="0px" y="0px"
	 viewBox="0 0 1073.987 1325.606" style="enable-background:new 0 0 1073.987 1325.606;" xml:space="preserve">
<style type="text/css">
	.st0{clip-path:url(#SVGID_2_);}
	.st1{fill:#008080;}
	.st2{opacity:0.2;}
	.st3{fill:#089882;}
	.st4{fill:#0F9F85;}
	.st5{fill:#13AF93;}
	.st6{opacity:0.3;}
	.st7{fill:#FFBCC3;}
	.st8{fill:#EFEFEF;}
	.st9{opacity:0.08;}
	.st10{fill:#FF3B73;}
	.st11{clip-path:url(#SVGID_4_);}
	.st12{fill:#12B996;}
	.st13{opacity:0.25;}
	.st14{fill:#333333;}
	.st15{fill:#EE80EE;}
	.st16{opacity:0.15;}
	.st17{fill:none;stroke:#333333;stroke-width:0.5;stroke-miterlimit:10;}
	.st18{fill:none;stroke:#333333;stroke-width:0.5;stroke-miterlimit:10;stroke-dasharray:1.0083,5.0416;}
	.st19{fill:none;stroke:#333333;stroke-width:0.5;stroke-miterlimit:10;stroke-dasharray:0.9917,4.9583;}
	.st20{fill:none;stroke:#333333;stroke-width:0.5;stroke-miterlimit:10;stroke-dasharray:0.9985,4.9923;}
	.st21{fill:none;stroke:#333333;stroke-width:0.5;stroke-miterlimit:10;stroke-dasharray:0.9862,4.9312;}
	.st22{fill:none;stroke:#333333;stroke-width:0.5;stroke-miterlimit:10;stroke-dasharray:1.0122,5.0612;}
	.st23{fill:none;stroke:#333333;stroke-width:0.5;stroke-miterlimit:10;stroke-dasharray:1.0169,5.0846;}
	.st24{clip-path:url(#SVGID_6_);}
	.st25{fill:#D377EC;}
	.st26{fill:none;stroke:#D377EC;stroke-width:3;stroke-miterlimit:10;}
	.st27{fill:none;stroke:#000000;stroke-width:2;stroke-miterlimit:10;}
	.st28{clip-path:url(#SVGID_8_);}
	.st29{clip-path:url(#SVGID_10_);}
	.st30{clip-path:url(#SVGID_12_);}
	.st31{clip-path:url(#SVGID_14_);}
	.st32{clip-path:url(#SVGID_16_);}
	.st33{clip-path:url(#SVGID_18_);}
	.st34{clip-path:url(#SVGID_20_);}
	.st35{clip-path:url(#SVGID_22_);}
	.st36{fill:#FF437D;}
	.st37{clip-path:url(#SVGID_24_);}
	.st38{clip-path:url(#SVGID_26_);}
	.st39{clip-path:url(#SVGID_28_);}
	.st40{fill:#E4244B;}
	.st41{fill:#E89D00;}
	.st42{opacity:0.4;}
	.st43{clip-path:url(#SVGID_30_);}
	.st44{fill:url(#SVGID_31_);}
	.st45{fill:url(#SVGID_32_);}
	.st46{fill:url(#SVGID_33_);}
	.st47{fill:url(#SVGID_34_);}
	.st48{fill:url(#SVGID_35_);}
	.st49{fill:url(#SVGID_36_);}
	.st50{fill:url(#SVGID_37_);}
	.st51{fill:url(#SVGID_38_);}
	.st52{opacity:0.3;fill:#FFAB24;}
	.st53{fill:#2A2A28;}
	.st54{clip-path:url(#SVGID_40_);}
	.st55{fill:#F7A91E;}
	.st56{clip-path:url(#SVGID_42_);}
	.st57{fill:url(#SVGID_43_);}
	.st58{fill:url(#SVGID_44_);}
	.st59{fill:url(#SVGID_45_);}
	.st60{fill:url(#SVGID_46_);}
	.st61{fill:url(#SVGID_47_);}
	.st62{fill:url(#SVGID_48_);}
	.st63{fill:url(#SVGID_49_);}
	.st64{fill:url(#SVGID_50_);}
	.st65{clip-path:url(#SVGID_52_);}
	.st66{clip-path:url(#SVGID_54_);}
	.st67{clip-path:url(#SVGID_56_);}
	.st68{clip-path:url(#SVGID_58_);}
	.st69{clip-path:url(#SVGID_60_);}
	.st70{clip-path:url(#SVGID_62_);}
	.st71{fill:#FFF2DE;}
	.st72{opacity:0.1;}
	.st73{fill:#FF7139;}
	.st74{fill:#232323;}
	.st75{clip-path:url(#SVGID_64_);}
	.st76{fill:#EE8E26;}
	.st77{clip-path:url(#SVGID_66_);}
	.st78{fill:#ECB599;}
	.st79{clip-path:url(#SVGID_68_);}
	.st80{clip-path:url(#SVGID_70_);}
	.st81{clip-path:url(#SVGID_72_);}
	.st82{fill:#7300DA;}
	.st83{fill:#8D12EF;}
	.st84{fill:#A636FF;}
	.st85{fill:#A854FF;}
	.st86{clip-path:url(#SVGID_74_);}
	.st87{fill:#3F00FF;}
	.st88{fill:#3E33FF;}
	.st89{fill:#5437FF;}
	.st90{fill:#5E4FFF;}
	.st91{clip-path:url(#SVGID_76_);}
	.st92{fill:#A35FED;}
	.st93{clip-path:url(#SVGID_78_);}
	.st94{fill:#FFB931;}
	.st95{clip-path:url(#SVGID_80_);}
	.st96{clip-path:url(#SVGID_82_);}
	.st97{clip-path:url(#SVGID_84_);}
	.st98{fill:url(#SVGID_85_);}
	.st99{clip-path:url(#SVGID_87_);}
	.st100{fill:#B2370A;}
	.st101{fill:#BF4213;}
	.st102{fill:#E76A27;}
	.st103{clip-path:url(#SVGID_89_);}
	.st104{clip-path:url(#SVGID_91_);}
	.st105{clip-path:url(#SVGID_93_);}
	.st106{fill:#FFFFFF;}
	.st107{fill:#C0E76D;}
	.st108{fill:#AADA5A;}
	.st109{fill:#C5EC80;}
	.st110{fill:none;stroke:#FFFFFF;stroke-width:2;stroke-miterlimit:10;}
	.st111{fill:url(#SVGID_94_);}
	.st112{opacity:0;}
	.st113{fill:#FFC22E;}
	.st114{clip-path:url(#SVGID_96_);}
	.st115{clip-path:url(#SVGID_98_);}
	.st116{clip-path:url(#SVGID_100_);}
	.st117{clip-path:url(#SVGID_102_);}
	.st118{clip-path:url(#SVGID_104_);}
	.st119{fill:url(#SVGID_105_);}
	.st120{clip-path:url(#SVGID_107_);}
	.st121{opacity:0.05;}
	.st122{fill:#FF6631;}
	.st123{clip-path:url(#SVGID_109_);}
	.st124{opacity:0.3;fill:#F42C6A;}
	.st125{clip-path:url(#SVGID_111_);}
	.st126{fill:#FC9232;}
	.st127{clip-path:url(#SVGID_113_);}
	.st128{clip-path:url(#SVGID_115_);}
	.st129{clip-path:url(#SVGID_117_);}
	.st130{clip-path:url(#SVGID_119_);}
	.st131{clip-path:url(#SVGID_121_);}
	.st132{clip-path:url(#SVGID_123_);}
	.st133{clip-path:url(#SVGID_125_);}
	.st134{fill:url(#SVGID_126_);}
	.st135{fill:url(#SVGID_127_);}
	.st136{fill:url(#SVGID_128_);}
	.st137{fill:url(#SVGID_129_);}
	.st138{fill:url(#SVGID_130_);}
	.st139{fill:url(#SVGID_131_);}
	.st140{fill:url(#SVGID_132_);}
	.st141{fill:url(#SVGID_133_);}
	.st142{clip-path:url(#SVGID_135_);}
	.st143{clip-path:url(#SVGID_137_);}
	.st144{opacity:0.5;fill:#F42C6A;}
	.st145{clip-path:url(#SVGID_139_);}
	.st146{clip-path:url(#SVGID_141_);}
	.st147{clip-path:url(#SVGID_143_);}
	.st148{clip-path:url(#SVGID_145_);}
	.st149{fill:#FFE2CF;}
</style>
<g>
	<defs>
		<path id="SVGID_118_" d="M0,739.654c0,0,96.084,56.551,145.759,160.405c3.709,7.757,7.01,15.548,10.02,23.328L118.772,589.49
			c0,0,68.696,104.564,89.48,245.689c0.11-6.639,0.091-12.868-0.124-18.487c-6.776-176.142,59.883-320.407,59.883-320.407
			l13.17,342.448c20.137-142.927,90.008-249.243,90.008-249.243l-37.006,333.898c3.009-7.78,6.31-15.571,10.02-23.328
			c49.675-103.854,145.761-160.405,145.761-160.405l-144.985,303.119h68.837l-61.337,230.246H133.557l-61.337-230.246h72.764
			L0,739.654z"/>
	</defs>
	<clipPath id="SVGID_2_">
		<use xlink:href="#SVGID_118_"  style="overflow:visible;"/>
	</clipPath>
	<g class="st0">
		<g>
			<path class="st1" d="M208.128,816.692c2.987,77.674-28.196,261.294-10.404,315.727l94.719-0.866L268.01,496.285
				C268.01,496.285,201.353,640.549,208.128,816.692z"/>
			<g class="st72">
				
					<image style="overflow:visible;" width="173" height="709" xlink:href="38F03DEB7452003E.png"  transform="matrix(1 0 0 1 155.8347 459.5684)">
				</image>
			</g>
			<path class="st3" d="M210.898,855.336c16.761,151.228-31.676,279.567-31.676,279.567L118.773,589.49
				C118.773,589.49,194.137,704.107,210.898,855.336z"/>
			<g class="st16">
				
					<image style="overflow:visible;" width="169" height="619" xlink:href="38F03DEB74520042.png"  transform="matrix(1 0 0 1 81.8347 552.5684)">
				</image>
			</g>
			<path class="st4" d="M145.759,900.06c49.675,103.854,33.394,214.152,33.394,214.152L-0.001,739.654
				C-0.001,739.654,96.085,796.205,145.759,900.06z"/>
			<g class="st16">
				
					<image style="overflow:visible;" width="254" height="447" xlink:href="38F03DEB74520045.png"  transform="matrix(1 0 0 1 -36.1653 703.5684)">
				</image>
			</g>
			<path class="st3" d="M279.065,855.336c-16.761,151.228,31.676,279.567,31.676,279.567L371.19,589.49
				C371.19,589.49,295.826,704.107,279.065,855.336z"/>
			<g class="st16">
				
					<image style="overflow:visible;" width="169" height="619" xlink:href="38F03DEB74520046.png"  transform="matrix(1 0 0 1 238.8347 552.5684)">
				</image>
			</g>
			<path class="st5" d="M344.203,900.06c-49.675,103.854-33.394,214.152-33.394,214.152l179.154-374.557
				C489.964,739.654,393.878,796.205,344.203,900.06z"/>
			<g class="st16">
				
					<image style="overflow:visible;" width="255" height="447" xlink:href="38F03DEB74520044.png"  transform="matrix(1 0 0 1 271.8347 703.5684)">
				</image>
			</g>
			<path class="st5" d="M276.86,964.67c34.082,109.962,1.971,216.731,1.971,216.731L155.913,784.815
				C155.913,784.815,242.778,854.707,276.86,964.67z"/>
			<g class="st2">
				
					<image style="overflow:visible;" width="209" height="469" xlink:href="38F03DEB74520043.png"  transform="matrix(1 0 0 1 119.8347 748.5684)">
				</image>
			</g>
			<polygon class="st7" points="133.556,1273.02 352.479,1273.02 413.815,1042.774 72.22,1042.774 			"/>
			<g class="st2">
				
					<image style="overflow:visible;" width="414" height="303" xlink:href="38F03DEB7452004D.png"  transform="matrix(1 0 0 1 35.8347 1006.5684)">
				</image>
			</g>
		</g>
		<g>
			<path class="st8" d="M349.778,1156.995c0,0-47.801,61.378-106.767,61.378s-106.767-61.378-106.767-61.378
				s47.801-61.378,106.767-61.378S349.778,1156.995,349.778,1156.995z"/>
			<g class="st9">
				
					<image style="overflow:visible;" width="286" height="195" xlink:href="38F03DEB7452004E.png"  transform="matrix(1 0 0 1 99.8347 1059.5685)">
				</image>
			</g>
			<circle class="st10" cx="243.011" cy="1156.995" r="42.461"/>
			<g class="st6">
				
					<image style="overflow:visible;" width="158" height="158" xlink:href="38F03DEB7452004C.png"  transform="matrix(1 0 0 1 163.8347 1077.5685)">
				</image>
			</g>
		</g>
	</g>
</g>
<g>
	<defs>
		<ellipse id="SVGID_120_" cx="494.409" cy="1127.42" rx="210.719" ry="159.491"/>
	</defs>
	<clipPath id="SVGID_4_">
		<use xlink:href="#SVGID_120_"  style="overflow:visible;"/>
	</clipPath>
	<g class="st11">
		<ellipse class="st4" cx="494.409" cy="1127.42" rx="210.719" ry="159.491"/>
		<path class="st12" d="M343.109,1046.716c5.837,8.671,8.766,13.024,8.766,24.663c0,11.64-2.929,15.992-8.766,24.664
			c-7.526,11.181-17.833,26.493-17.833,54.37c0,27.878,10.307,43.191,17.833,54.371c5.837,8.672,8.767,13.025,8.767,24.666
			c0,6.001-0.785,10.063-2.339,13.781c13.949,10,29.707,18.566,46.858,25.4c4.764-9.609,8.68-22.005,8.68-39.181
			c0-27.878-10.307-43.19-17.833-54.371c-5.837-8.672-8.767-13.025-8.767-24.666c0-11.64,2.929-15.992,8.766-24.664
			c7.526-11.181,17.833-26.493,17.833-54.37s-10.307-43.189-17.833-54.37c-5.512-8.188-8.428-12.533-8.736-22.794
			c-17.696,8.839-33.532,19.637-46.955,31.996C335.04,1034.71,339.408,1041.218,343.109,1046.716z"/>
		<path class="st12" d="M494.409,967.929c-19.962,0-39.275,2.102-57.576,6.028c-1.05,5.458-1.678,11.541-1.678,18.391
			c0,27.876,10.307,43.189,17.833,54.369c5.837,8.671,8.766,13.024,8.766,24.663c0,11.64-2.929,15.992-8.766,24.664
			c-7.526,11.181-17.833,26.493-17.833,54.37c0,27.878,10.307,43.191,17.833,54.371c5.837,8.672,8.767,13.025,8.767,24.666
			c0,11.641-2.93,15.994-8.767,24.666c-4.618,6.861-10.275,15.294-13.963,27.216c17.651,3.63,36.216,5.579,55.385,5.579
			c0.218,0,0.434-0.006,0.651-0.006c0.641-0.975,1.327-1.995,2.06-3.084c7.526-11.181,17.833-26.494,17.833-54.371
			s-10.307-43.19-17.833-54.371c-5.837-8.672-8.767-13.025-8.767-24.666c0-11.64,2.929-15.992,8.766-24.664
			c7.526-11.181,17.833-26.493,17.833-54.37s-10.307-43.189-17.833-54.37c-5.837-8.67-8.766-13.022-8.766-24.662
			c0-11.515,2.873-15.904,8.587-24.394C496.097,967.945,495.256,967.929,494.409,967.929z"/>
		<path class="st12" d="M546.925,972.923c-1.176,5.722-1.892,12.134-1.892,19.424c0,27.876,10.307,43.189,17.833,54.369
			c5.837,8.671,8.766,13.024,8.766,24.663c0,11.64-2.929,15.992-8.766,24.664c-7.526,11.181-17.833,26.493-17.833,54.37
			c0,27.878,10.307,43.191,17.833,54.371c5.837,8.672,8.767,13.025,8.767,24.666c0,11.641-2.93,15.994-8.767,24.666
			c-4.644,6.899-10.34,15.384-14.027,27.412c26.69-5.387,51.293-14.636,72.702-26.915c1.992-7.079,3.291-15.326,3.291-25.164
			c0-27.878-10.307-43.19-17.833-54.371c-5.837-8.672-8.767-13.025-8.767-24.666c0-11.64,2.929-15.992,8.766-24.664
			c7.526-11.181,17.833-26.493,17.833-54.37s-10.307-43.189-17.833-54.37c-5.837-8.67-8.766-13.022-8.766-24.662
			c0-1.321,0.043-2.537,0.118-3.687C582.391,981.796,565.136,976.459,546.925,972.923z"/>
		<path class="st12" d="M672.745,1046.716c5.837,8.671,8.766,13.024,8.766,24.663c0,11.64-2.929,15.992-8.766,24.664
			c-7.526,11.181-17.833,26.493-17.833,54.37c0,27.878,10.307,43.191,17.833,54.371c1.015,1.508,1.936,2.881,2.775,4.189
			c18.798-23.864,29.608-51.751,29.608-81.552c0-35.225-15.099-67.776-40.648-94.166
			C667.208,1038.462,670.14,1042.847,672.745,1046.716z"/>
		<g class="st16">
			
				<image style="overflow:visible;" width="495" height="392" xlink:href="3AB8F307CFDA0941.png"  transform="matrix(1 0 0 1 246.8347 931.5684)">
			</image>
		</g>
	</g>
</g>
<g>
	<g>
		<defs>
			<polygon id="SVGID_122_" points="248.026,127.854 325.385,139.219 290.58,35.515 362.321,112.938 392.864,0 409.201,115.069 
				479.521,35.515 434.061,146.322 518.289,120.335 448.136,175.2 385.717,224.937 			"/>
		</defs>
		<clipPath id="SVGID_6_">
			<use xlink:href="#SVGID_122_"  style="overflow:visible;"/>
		</clipPath>
		<g class="st24">
			<polygon class="st40" points="248.026,127.854 325.385,139.219 290.58,35.515 362.321,112.938 392.864,0 409.201,115.069 
				479.521,35.515 434.061,146.322 518.289,120.335 448.136,175.2 385.717,224.937 			"/>
			<polygon class="st41" points="248.026,127.854 325.385,139.219 290.58,35.515 362.321,112.938 392.864,0 409.201,115.069 
				479.521,35.515 434.061,146.322 518.289,120.335 448.136,175.2 385.717,224.937 			"/>
			<polygon class="st55" points="248.026,127.854 325.385,139.219 290.58,35.515 362.321,112.938 392.864,0 409.201,115.069 
				479.521,35.515 434.061,146.322 518.289,120.335 448.136,175.2 385.717,224.937 			"/>
			<g class="st6">
				
					<image style="overflow:visible;" width="343" height="298" xlink:href="3AB8F307CFDA0947.png"  transform="matrix(1 0 0 1 211.8347 -36.4316)">
				</image>
			</g>
		</g>
	</g>
	<g>
		<defs>
			<path id="SVGID_124_" d="M511.805,366.107H254.51l42.679-221.323l85.969,67.371l85.969-67.371L511.805,366.107z M517.917,366.107
				h226.201l-113.1-222.543L517.917,366.107z M376.763,584.518c35.058-9.147,50.91-30.486,50.91-63.409
				c0-63.714-59.141-63.714-97.857-63.714H257.87v213.397h173.461L376.763,584.518z M455.726,672.04h76.214V458.643h-76.214V672.04z
				 M551.762,670.791h226.201l-113.1-222.543L551.762,670.791z M369.136,763.309v103.039L259.084,757.82v218.886H445.35V763.309
				H369.136z M465.176,976.705h226.201l-113.1-222.543L465.176,976.705z M750.396,922.839l-9.746,17.821l-17.821,9.746l17.821,9.746
				l9.746,17.821l9.746-17.821l17.821-9.746l-17.821-9.746L750.396,922.839z"/>
		</defs>
		<clipPath id="SVGID_8_">
			<use xlink:href="#SVGID_124_"  style="overflow:visible;"/>
		</clipPath>
		<g class="st28">
			<g>
				
					<linearGradient id="SVGID_10_" gradientUnits="userSpaceOnUse" x1="-2508.8477" y1="-3585.1084" x2="-2360.585" y2="-3841.9067" gradientTransform="matrix(0 -1 1 0 4107.3345 -2160.7903)">
					<stop  offset="0" style="stop-color:#F55DFF"/>
					<stop  offset="1" style="stop-color:#7331FF"/>
				</linearGradient>
				<polygon style="fill:url(#SVGID_10_);" points="511.805,366.107 254.51,366.107 297.188,144.784 383.157,212.155 
					469.126,144.784 				"/>
				
					<linearGradient id="SVGID_12_" gradientUnits="userSpaceOnUse" x1="-2516.9045" y1="-3357.4478" x2="-2412.2949" y2="-3538.6372" gradientTransform="matrix(0 -1 1 0 4107.3345 -2160.7903)">
					<stop  offset="0" style="stop-color:#F55DFF"/>
					<stop  offset="1" style="stop-color:#7331FF"/>
				</linearGradient>
				<polygon style="fill:url(#SVGID_12_);" points="631.017,143.564 744.117,366.107 517.917,366.107 				"/>
			</g>
			<g>
				
					<linearGradient id="SVGID_14_" gradientUnits="userSpaceOnUse" x1="-2613.166" y1="-3470.9277" x2="-2484.7061" y2="-3693.427" gradientTransform="matrix(0 -1 1 0 3920.4563 -1973.9121)">
					<stop  offset="0" style="stop-color:#F55DFF"/>
					<stop  offset="1" style="stop-color:#7331FF"/>
				</linearGradient>
				<path style="fill:url(#SVGID_14_);" d="M431.331,670.772H257.87V457.376h71.945c38.717,0,97.857,0,97.857,63.714
					c0,32.924-15.852,54.263-50.91,63.41L431.331,670.772z"/>
				
					<linearGradient id="SVGID_16_" gradientUnits="userSpaceOnUse" x1="-2634.6917" y1="-3136.7241" x2="-2530.082" y2="-3317.9136" gradientTransform="matrix(0 -1 1 0 3920.4563 -1973.9121)">
					<stop  offset="0" style="stop-color:#F55DFF"/>
					<stop  offset="1" style="stop-color:#7331FF"/>
				</linearGradient>
				<polygon style="fill:url(#SVGID_16_);" points="664.862,448.229 777.963,670.772 551.762,670.772 				"/>
				
					<linearGradient id="SVGID_18_" gradientUnits="userSpaceOnUse" x1="-2582.4292" y1="-3351.8413" x2="-2496.0786" y2="-3501.405" gradientTransform="matrix(0 -1 1 0 3920.4563 -1973.9121)">
					<stop  offset="0" style="stop-color:#F55DFF"/>
					<stop  offset="1" style="stop-color:#7331FF"/>
				</linearGradient>
				<rect x="455.726" y="458.643" style="fill:url(#SVGID_18_);" width="76.214" height="213.397"/>
			</g>
			<g>
				
					<linearGradient id="SVGID_20_" gradientUnits="userSpaceOnUse" x1="-2734.251" y1="-3275.5171" x2="-2598.8738" y2="-3509.9973" gradientTransform="matrix(0 -1 1 0 3743.7856 -1797.2415)">
					<stop  offset="0" style="stop-color:#F55DFF"/>
					<stop  offset="1" style="stop-color:#7331FF"/>
				</linearGradient>
				<polygon style="fill:url(#SVGID_20_);" points="445.35,763.309 445.35,976.705 259.084,976.705 259.084,757.82 369.136,866.348 
					369.136,763.309 				"/>
				
					<linearGradient id="SVGID_22_" gradientUnits="userSpaceOnUse" x1="-2763.9541" y1="-3046.6394" x2="-2659.3442" y2="-3227.8289" gradientTransform="matrix(0 -1 1 0 3743.7856 -1797.2415)">
					<stop  offset="0" style="stop-color:#F55DFF"/>
					<stop  offset="1" style="stop-color:#7331FF"/>
				</linearGradient>
				<polygon style="fill:url(#SVGID_22_);" points="578.276,754.162 691.377,976.705 465.176,976.705 				"/>
				
					<linearGradient id="SVGID_24_" gradientUnits="userSpaceOnUse" x1="996.2743" y1="950.4061" x2="1051.4083" y2="950.4061" gradientTransform="matrix(-1 0 0 1 1774.2371 0)">
					<stop  offset="0" style="stop-color:#F55DFF"/>
					<stop  offset="1" style="stop-color:#7331FF"/>
				</linearGradient>
				<polygon style="fill:url(#SVGID_24_);" points="740.65,940.66 722.829,950.406 740.65,960.152 750.396,977.973 760.142,960.152 
					777.963,950.406 760.142,940.66 750.396,922.839 				"/>
			</g>
			<g>
				<g class="st2">
					
						<image style="overflow:visible;" width="330" height="294" xlink:href="3AB8F307CFDA0940.png"  transform="matrix(1 0 0 1 217.8347 109.5684)">
					</image>
				</g>
				<g class="st2">
					
						<image style="overflow:visible;" width="299" height="295" xlink:href="3AB8F307CFDA0943.png"  transform="matrix(1 0 0 1 481.8347 108.5684)">
					</image>
				</g>
			</g>
			<g>
				<g class="st2">
					
						<image style="overflow:visible;" width="246" height="286" xlink:href="3AB8F307CFDA095F.png"  transform="matrix(1 0 0 1 221.8347 422.5684)">
					</image>
				</g>
				<g class="st2">
					
						<image style="overflow:visible;" width="150" height="286" xlink:href="3AB8F307CFDA0942.png"  transform="matrix(1 0 0 1 418.8347 422.5684)">
					</image>
				</g>
				<g class="st2">
					
						<image style="overflow:visible;" width="300" height="296" xlink:href="3AB8F307CFDA0945.png"  transform="matrix(1 0 0 1 514.8347 412.5684)">
					</image>
				</g>
			</g>
			<g>
				<g class="st2">
					
						<image style="overflow:visible;" width="259" height="292" xlink:href="3AB8F307CFDA0946.png"  transform="matrix(1 0 0 1 222.8347 722.5684)">
					</image>
				</g>
				<g class="st2">
					
						<image style="overflow:visible;" width="299" height="296" xlink:href="3AB8F307CFDA0944.png"  transform="matrix(1 0 0 1 428.8347 718.5684)">
					</image>
				</g>
				<g class="st2">
					
						<image style="overflow:visible;" width="129" height="128" xlink:href="3AB8F307CFDA094C.png"  transform="matrix(1 0 0 1 685.8347 886.5684)">
					</image>
				</g>
			</g>
		</g>
	</g>
</g>
<g>
	<defs>
		<path id="SVGID_134_" d="M438.319,1321.016c52.985-0.229,102.594-14.618,145.271-39.557l-146.525-251.281l-144.353,252.535
			C335.603,1307.283,385.335,1321.244,438.319,1321.016z"/>
	</defs>
	<clipPath id="SVGID_26_">
		<use xlink:href="#SVGID_134_"  style="overflow:visible;"/>
	</clipPath>
	<g class="st38">
		<g>
			<path class="st5" d="M438.319,1321.016c52.985-0.229,102.594-14.618,145.271-39.557l-146.525-251.281l-144.353,252.535
				C335.603,1307.283,385.335,1321.244,438.319,1321.016z"/>
		</g>
		<g class="st16">
			
				<image style="overflow:visible;" width="364" height="364" xlink:href="3AB8F307CFDA0964.png"  transform="matrix(1 0 0 1 255.8347 993.5684)">
			</image>
		</g>
		<g>
			<path class="st71" d="M307.537,1256.777c38.486,22.047,83.11,34.574,130.653,34.369c47.543-0.205,92.058-13.117,130.352-35.495
				l-131.477-225.474L307.537,1256.777z"/>
		</g>
		<g class="st72">
			
				<image style="overflow:visible;" width="334" height="334" xlink:href="3AB8F307CFDA0967.png"  transform="matrix(1 0 0 1 270.8347 993.5684)">
			</image>
		</g>
		<g>
			<path class="st122" d="M321.76,1231.895c34.26,19.626,73.984,30.778,116.307,30.595s81.949-11.676,116.038-31.597
				l-117.04-200.716L321.76,1231.895z"/>
		</g>
		<g class="st16">
			
				<image style="overflow:visible;" width="306" height="305" xlink:href="3AB8F307CFDA0965.png"  transform="matrix(1 0 0 1 284.8347 993.5684)">
			</image>
		</g>
		<g>
			<path class="st74" d="M430.164,1224.622c0.064-4.275,8.017-18.485,8.017-18.485s7.527,14.44,7.464,18.715
				c-0.064,4.275-3.581,7.689-7.855,7.625S430.1,1228.897,430.164,1224.622z"/>
		</g>
		<g>
			<path class="st74" d="M429.621,1098.737c0.064-4.275,8.017-18.485,8.017-18.485s7.527,14.44,7.464,18.715
				c-0.064,4.275-3.581,7.689-7.855,7.625C432.971,1106.528,429.558,1103.011,429.621,1098.737z"/>
		</g>
		<g>
			<path class="st74" d="M370.65,1208.545c1.485-4.009,13.72-14.755,13.72-14.755s2.283,16.123,0.798,20.133
				c-1.485,4.009-5.939,6.056-9.948,4.571C371.211,1217.008,369.165,1212.554,370.65,1208.545z"/>
		</g>
		<g>
			<path class="st74" d="M406.861,1159.281c0.754-4.208,10.901-16.945,10.901-16.945s5.093,15.467,4.339,19.676
				s-4.777,7.009-8.985,6.255C408.907,1167.512,406.107,1163.49,406.861,1159.281z"/>
		</g>
		<g>
			<path class="st74" d="M471.183,1159.004c-0.79-4.202-11.046-16.85-11.046-16.85s-4.96,15.511-4.169,19.712
				c0.79,4.202,4.837,6.967,9.039,6.177S471.973,1163.206,471.183,1159.004z"/>
		</g>
		<g>
			<path class="st74" d="M506.862,1208.676c-2.365-3.562-16.739-11.214-16.739-11.214s1.476,16.217,3.841,19.779
				s7.169,4.532,10.731,2.167C508.256,1217.042,509.227,1212.238,506.862,1208.676z"/>
		</g>
	</g>
</g>
<g>
	<defs>
		<path id="SVGID_136_" d="M657.216,1202.9l-56.418-29.391l77.826-149.394c22.478-43.147,75.677-59.904,118.824-37.426v0
			c43.148,22.477,59.904,75.677,37.426,118.824l-77.826,149.394l-56.418-29.391l-45.279,86.917
			c-6.245,11.988-21.027,16.644-33.015,10.399c-11.988-6.245-16.644-21.027-10.399-33.015L657.216,1202.9z"/>
	</defs>
	<clipPath id="SVGID_28_">
		<use xlink:href="#SVGID_136_"  style="overflow:visible;"/>
	</clipPath>
	<g class="st39">
		<g>
			<path class="st78" d="M635.66,1329.772l-26.645-13.881c-4.631-2.412-6.429-8.122-4.017-12.752l68.254-131.02
				c2.412-4.63,8.122-6.429,12.752-4.017l26.645,13.881c4.631,2.412,6.429,8.122,4.017,12.752l-68.254,131.02
				C646,1330.386,640.291,1332.184,635.66,1329.772z"/>
		</g>
		<g class="st2">
			
				<image style="overflow:visible;" width="186" height="237" xlink:href="3AB8F307CFDA096B.png"  transform="matrix(1 0 0 1 567.8347 1130.5685)">
			</image>
		</g>
		<g>
			<path class="st10" d="M757.049,1254.907l-156.251-81.398l78.114-149.948c22.318-42.842,75.14-59.479,117.982-37.161l1.107,0.577
				c42.842,22.318,59.479,75.14,37.161,117.982L757.049,1254.907z"/>
		</g>
		<g class="st2">
			
				<image style="overflow:visible;" width="318" height="352" xlink:href="3AB8F307CFDA096C.png"  transform="matrix(1 0 0 1 563.8347 939.5684)">
			</image>
		</g>
		<path class="st144" d="M670.297,1209.714l-29.828-15.539l76.674-147.183c4.261-8.178,14.344-11.355,22.523-7.094l0.211,0.11
			c8.178,4.26,11.355,14.344,7.094,22.523L670.297,1209.714z"/>
		<path class="st144" d="M717.38,1234.242l-29.828-15.539l76.674-147.184c4.261-8.178,14.344-11.355,22.523-7.094l0.211,0.11
			c8.178,4.26,11.355,14.344,7.094,22.523L717.38,1234.242z"/>
		<g class="st2">
			
				<image style="overflow:visible;" width="182" height="245" xlink:href="3AB8F307CFDA096F.png"  transform="matrix(1 0 0 1 603.8347 1001.5684)">
			</image>
		</g>
		<g class="st2">
			
				<image style="overflow:visible;" width="182" height="245" xlink:href="3AB8F307CFDA096D.png"  transform="matrix(1 0 0 1 650.8347 1025.5685)">
			</image>
		</g>
	</g>
</g>
<g>
	<defs>
		<path id="SVGID_138_" d="M993.252,1228.081c-9.254-3.988-18.825-6.282-28.247-7.413c5.848-6.237,11.16-13.274,15.421-21.223
			c24.611-45.895,5.363-104.121,5.363-104.121s-32.61,8.938-59.479,32.324c-21.696-24.137-53.15-39.325-88.159-39.325
			c-65.454,0-118.516,53.061-118.516,118.516c0,65.455,53.062,118.516,118.516,118.516c34.545,0,65.63-14.79,87.292-38.372
			c9.064,8.973,19.909,17.122,32.676,22.624c47.725,20.566,103.979-3.524,103.979-3.524S1040.977,1248.647,993.252,1228.081z"/>
	</defs>
	<clipPath id="SVGID_30_">
		<use xlink:href="#SVGID_138_"  style="overflow:visible;"/>
	</clipPath>
	<g class="st43">
		<path class="st5" d="M889.272,1231.605c0,0,56.255-24.09,103.979-3.524c47.725,20.566,68.847,78.001,68.847,78.001
			s-56.255,24.09-103.979,3.524C910.395,1289.04,889.272,1231.605,889.272,1231.605z"/>
		<path class="st5" d="M896.665,1261.525c0,0-19.249-58.226,5.361-104.121c24.61-45.895,83.761-62.08,83.761-62.08
			s19.249,58.226-5.361,104.121S896.665,1261.525,896.665,1261.525z"/>
		<g class="st16">
			
				<image style="overflow:visible;" width="246" height="171" xlink:href="3AB8F307CFDA096A.png"  transform="matrix(1 0 0 1 852.8347 1183.5685)">
			</image>
		</g>
		<g class="st2">
			
				<image style="overflow:visible;" width="177" height="239" xlink:href="3AB8F307CFDA0966.png"  transform="matrix(1 0 0 1 852.8347 1058.5685)">
			</image>
		</g>
		<circle class="st126" cx="838.151" cy="1206.838" r="118.516"/>
		<g class="st2">
			
				<image style="overflow:visible;" width="310" height="310" xlink:href="3AB8F307CFDA0959.png"  transform="matrix(1 0 0 1 682.8347 1051.5685)">
			</image>
		</g>
	</g>
</g>
<g>
	<defs>
		<polygon id="SVGID_140_" points="955.151,1013.479 922.413,984.866 933.349,1026.948 904.736,1059.687 946.818,1048.75 
			979.557,1077.364 968.62,1035.281 997.234,1002.543 		"/>
	</defs>
	<clipPath id="SVGID_31_">
		<use xlink:href="#SVGID_140_"  style="overflow:visible;"/>
	</clipPath>
	<g style="clip-path:url(#SVGID_31_);">
		<polygon class="st94" points="955.151,1013.479 922.413,984.866 933.349,1026.948 904.736,1059.687 946.818,1048.75 
			979.557,1077.364 968.62,1035.281 997.234,1002.543 		"/>
		<g class="st6">
			
				<image style="overflow:visible;" width="166" height="165" xlink:href="3AB8F307CFDA098B.png"  transform="matrix(1 0 0 1 867.8347 948.5684)">
			</image>
		</g>
	</g>
</g>
<g>
	<defs>
		<polygon id="SVGID_142_" points="1053.413,1024.8 1037.407,1010.811 1042.754,1031.385 1028.765,1047.391 1049.339,1042.044 
			1065.345,1056.033 1059.998,1035.459 1073.987,1019.453 		"/>
	</defs>
	<clipPath id="SVGID_32_">
		<use xlink:href="#SVGID_142_"  style="overflow:visible;"/>
	</clipPath>
	<g style="clip-path:url(#SVGID_32_);">
		<polygon class="st94" points="1053.413,1024.8 1037.407,1010.811 1042.754,1031.385 1028.765,1047.391 1049.339,1042.044 
			1065.345,1056.033 1059.998,1035.459 1073.987,1019.453 		"/>
		<g class="st6">
			
				<image style="overflow:visible;" width="119" height="118" xlink:href="3AB8F307CFDA0989.png"  transform="matrix(1 0 0 1 991.8347 974.5684)">
			</image>
		</g>
	</g>
</g>
<g>
	<defs>
		<polygon id="SVGID_144_" points="1049.318,1133.307 1033.312,1119.318 1038.659,1139.892 1024.67,1155.898 1045.244,1150.551 
			1061.25,1164.54 1055.903,1143.966 1069.893,1127.96 		"/>
	</defs>
	<clipPath id="SVGID_33_">
		<use xlink:href="#SVGID_144_"  style="overflow:visible;"/>
	</clipPath>
	<g style="clip-path:url(#SVGID_33_);">
		<polygon class="st94" points="1049.318,1133.307 1033.312,1119.318 1038.659,1139.892 1024.67,1155.898 1045.244,1150.551 
			1061.25,1164.54 1055.903,1143.966 1069.893,1127.96 		"/>
		<g class="st6">
			
				<image style="overflow:visible;" width="119" height="118" xlink:href="3AB8F307CFDA09B7.png"  transform="matrix(1 0 0 1 987.8347 1082.5685)">
			</image>
		</g>
	</g>
</g>
</svg>
