<svg xmlns="http://www.w3.org/2000/svg" xmlns:xlink="http://www.w3.org/1999/xlink" width="129.5" height="129.5" viewBox="0 0 129.5 129.5"><defs><style>.a{fill:#1e1e1e;}.b{fill:url(#a);}.c{fill:url(#b);}.d{fill:url(#c);}.e{fill:url(#d);}.f{fill:url(#e);}.g{fill:url(#f);}.h{fill:url(#g);}.i{fill:url(#h);}.j{fill:url(#i);}.k{fill:url(#j);}.l{fill:url(#k);}.m{fill:url(#l);}.n{fill:url(#m);}.o{fill:url(#n);}.p{fill:url(#o);}.q{fill:url(#p);}.r{fill:url(#q);}.s{fill:url(#r);}.t{fill:url(#s);}.u{fill:url(#t);}.v{fill:url(#u);}.w{fill:url(#v);}.x{fill:url(#w);}.y{fill:url(#x);}.z{fill:url(#y);}.aa{fill:url(#z);}.ab{fill:url(#aa);}.ac{fill:url(#ab);}.ad{fill:url(#ac);}.ae{fill:url(#ad);}.af{fill:url(#ae);}.ag{fill:url(#af);}.ah{fill:url(#ag);}.ai{fill:url(#ah);}.aj{fill:url(#ai);}.ak{fill:url(#aj);}.al{fill:url(#ak);}.am{fill:url(#al);}.an{fill:#fff;}.ao{fill:#ff4adc;}.ap{fill:none;stroke:#fff;stroke-miterlimit:10;}</style><linearGradient id="a" x1="-0.146" y1="0.07" x2="1.377" y2="0.814" gradientUnits="objectBoundingBox"><stop offset="0" stop-color="#ff7f2c"/><stop offset="0.096" stop-color="#ff754c"/><stop offset="0.245" stop-color="#ff6877"/><stop offset="0.396" stop-color="#ff5d9b"/><stop offset="0.546" stop-color="#ff54b8"/><stop offset="0.697" stop-color="#ff4ecc"/><stop offset="0.848" stop-color="#ff4bd8"/><stop offset="1" stop-color="#ff4adc"/></linearGradient><linearGradient id="b" x1="0.125" y1="0.361" x2="0.871" y2="1.106" xlink:href="#a"/><linearGradient id="c" x1="-0.179" y1="0.171" x2="0.753" y2="1.082" xlink:href="#a"/><linearGradient id="d" x1="-0.5" y1="0.147" x2="1.607" y2="0.756" xlink:href="#a"/><linearGradient id="e" x1="0.246" y1="0.151" x2="0.982" y2="1.021" xlink:href="#a"/><linearGradient id="f" x1="-0.11" y1="0.323" x2="1.106" y2="0.677" xlink:href="#a"/><linearGradient id="g" x1="0.184" y1="-0.609" x2="0.83" y2="1.522" xlink:href="#a"/><linearGradient id="h" x1="0.019" y1="-0.016" x2="1.005" y2="0.999" xlink:href="#a"/><linearGradient id="i" x1="0.004" y1="-0.002" x2="0.853" y2="1.063" xlink:href="#a"/><linearGradient id="j" x1="-0.228" y1="0.13" x2="1.128" y2="0.9" xlink:href="#a"/><linearGradient id="k" x1="-0.19" y1="0.107" x2="1.189" y2="0.893" xlink:href="#a"/><linearGradient id="l" x1="-0.529" y1="0.177" x2="1.511" y2="0.836" xlink:href="#a"/><linearGradient id="m" x1="-0.225" y1="0.295" x2="1.325" y2="0.743" xlink:href="#a"/><linearGradient id="n" x1="0.2" y1="0.277" x2="1.157" y2="0.898" xlink:href="#a"/><linearGradient id="o" x1="-0.054" y1="0.111" x2="0.958" y2="1.038" xlink:href="#a"/><linearGradient id="p" x1="-0.145" y1="0.104" x2="1.027" y2="0.945" xlink:href="#a"/><linearGradient id="q" x1="-0.094" y1="0.078" x2="1" y2="0.999" xlink:href="#a"/><linearGradient id="r" x1="0.335" y1="0.261" x2="1.165" y2="0.836" xlink:href="#a"/><linearGradient id="s" x1="-0.173" y1="0.102" x2="1.177" y2="0.896" xlink:href="#a"/><linearGradient id="t" x1="0.332" y1="0.399" x2="0.853" y2="0.72" xlink:href="#a"/><linearGradient id="u" x1="0.054" y1="0.057" x2="1.039" y2="0.964" xlink:href="#a"/><linearGradient id="v" x1="0.333" y1="0.4" x2="0.667" y2="0.6" xlink:href="#a"/><linearGradient id="w" x1="-0.11" y1="0.076" x2="1.106" y2="0.923" xlink:href="#a"/><linearGradient id="x" x1="0.399" y1="0.425" x2="0.596" y2="0.568" xlink:href="#a"/><linearGradient id="y" x1="0.06" y1="0.248" x2="0.936" y2="0.75" xlink:href="#a"/><linearGradient id="z" x1="-0.154" y1="0.12" x2="0.879" y2="0.926" xlink:href="#a"/><linearGradient id="aa" x1="-0.857" y1="0.2" x2="1.883" y2="0.798" xlink:href="#a"/><linearGradient id="ab" x1="-0.305" y1="0.138" x2="1.306" y2="0.863" xlink:href="#a"/><linearGradient id="ac" x1="0.194" y1="-0.961" x2="0.79" y2="2.092" xlink:href="#a"/><linearGradient id="ad" x1="0.18" y1="0.36" x2="0.82" y2="0.64" xlink:href="#a"/><linearGradient id="ae" x1="-0.002" y1="0.017" x2="1.106" y2="0.913" xlink:href="#a"/><linearGradient id="af" x1="0.299" y1="0.389" x2="0.673" y2="0.607" xlink:href="#a"/><linearGradient id="ag" x1="-0.186" y1="0.106" x2="1.187" y2="0.894" xlink:href="#a"/><linearGradient id="ah" x1="-0.01" y1="0.009" x2="1.156" y2="0.883" xlink:href="#a"/><linearGradient id="ai" x1="-0.099" y1="0.073" x2="1.072" y2="0.948" xlink:href="#a"/><linearGradient id="aj" x1="-0.072" y1="0.053" x2="1.096" y2="0.928" xlink:href="#a"/><linearGradient id="ak" x1="-0.197" y1="0.105" x2="1.241" y2="0.872" xlink:href="#a"/><linearGradient id="al" x1="-0.037" y1="0.025" x2="1.2" y2="0.864" xlink:href="#a"/></defs><circle class="a" cx="64.75" cy="64.75" r="64.75" transform="translate(0 0)"/><g transform="translate(11.884 7.918)"><g transform="translate(0 13.604)"><path class="b" d="M92,124.795a.242.242,0,0,0,.047.1l-.019-.091Z" transform="translate(-53.108 -77.438)"/><path class="c" d="M86.593,117.371a.457.457,0,0,1-.075.147C86.6,117.437,86.775,117.662,86.593,117.371Z" transform="translate(-50.649 -74.111)"/><path class="d" d="M92.042,124.69l.008.064a.059.059,0,0,0,.059-.007C92.07,124.736,92.05,124.719,92.042,124.69Z" transform="translate(-53.124 -77.391)"/><path class="e" d="M79.139,79.568a.441.441,0,0,0,0-.2.145.145,0,0,0-.052-.01Z" transform="translate(-47.322 -57.077)"/><path class="f" d="M74.61,96.648l-.033.021.055.026Z" transform="translate(-45.299 -64.826)"/><path class="g" d="M92.235,116.348l-.056.193A1.1,1.1,0,0,0,92.235,116.348Z" transform="translate(-53.186 -73.653)"/><path class="h" d="M92.133,118.25a.228.228,0,0,0,.067.02v0Z" transform="translate(-53.165 -74.505)"/><path class="i" d="M85.637,90.154a.163.163,0,0,0-.026-.031C85.536,90.056,85.579,90.106,85.637,90.154Z" transform="translate(-50.225 -61.888)"/><path class="j" d="M90.688,97.562a1,1,0,0,1-.144-.1C90.579,97.543,90.611,97.6,90.688,97.562Z" transform="translate(-52.453 -65.19)"/><path class="k" d="M80.307,81.677h0l-.017-.03Z" transform="translate(-47.86 -58.104)"/><path class="l" d="M90.451,97.3a.523.523,0,0,0-.114-.2A.348.348,0,0,0,90.451,97.3Z" transform="translate(-52.36 -65.028)"/><path class="m" d="M92.063,126.809l-.038-.118C92.025,126.732,92.019,126.782,92.063,126.809Z" transform="translate(-53.117 -78.287)"/><path class="n" d="M91.968,123.615c-.083-.067.136-.31.042-.406-.013.1-.121.252-.087.392Z" transform="translate(-53.068 -76.727)"/><path class="o" d="M92.029,100.946l-.083.142.132.061Z" transform="translate(-53.081 -66.752)"/><path class="p" d="M70.913,39.4l-.281-.389c-.1-.072-.159.036.014.291Z" transform="translate(-43.489 -38.993)"/><path class="q" d="M71.7,41.485c.022.118-.075.047-.116.041.258.268.6.55.629.264-.331-.221-.311-.333-.686-.562-.173-.255-.218-.493-.134-.482-.095-.071-.2-.433-.387-.519A2.678,2.678,0,0,0,71.7,41.485Z" transform="translate(-43.701 -39.546)"/><path class="r" d="M76.366,48.5a1.441,1.441,0,0,0-.177-.209l.144.21A.132.132,0,0,1,76.366,48.5Z" transform="translate(-46.021 -43.161)"/><path class="s" d="M62.361,50.126c.007.01.017.007.024.013C62.39,50.1,62.386,50.085,62.361,50.126Z" transform="translate(-39.825 -43.97)"/><path class="t" d="M76.625,48.948l.131.222A1.8,1.8,0,0,0,76.625,48.948Z" transform="translate(-46.217 -43.454)"/><path class="u" d="M47.586,75.581a.812.812,0,0,1,.245-.145C47.694,75.452,48.057,74.747,47.586,75.581Z" transform="translate(-33.205 -55.204)"/><path class="v" d="M76.374,48.72a.214.214,0,0,1,.138.105l-.1-.151C76.387,48.672,76.367,48.68,76.374,48.72Z" transform="translate(-46.103 -43.33)"/><path class="w" d="M95.375,163.409l-.44.735C95.066,163.943,95.225,163.676,95.375,163.409Z" transform="translate(-54.421 -94.739)"/><path class="x" d="M30.226,137.547a.557.557,0,0,0,.113.162Z" transform="translate(-25.427 -83.151)"/><path class="y" d="M92.428,168.776a2.268,2.268,0,0,0-.33.368.412.412,0,0,0-.014.107Z" transform="translate(-53.143 -97.144)"/><path class="z" d="M74.8,85.1c.107-.188.2-.374.293-.55a12.184,12.184,0,0,1-.892-1.413l.327.395-.673-1.083.294.663c-.437-.542-.189.195-.593-.617a8.535,8.535,0,0,1-.411-.957l0,0a3.657,3.657,0,0,1-.667-.984c-.008-.146.25-.023.245-.119-.315-.2-.84-1.354-1.209-1.625.107.1.2.052.2,0l-.261-.171c-.119-.295-.124-.346-.023-.344-.453-.832-.076.391-.541-.638.054.071.051.024.161.172-.515-1.007-1.171-1.843-1.631-2.775.026-.369.5.759.474.368-.783-1.276-1.768-2.555-2.452-3.833l.115.245c-.354-.027-.415-1.006-.9-1.57.109.144.259.122.206.1-.456-.882-1.078-1.718-1.911-2.972l.158.123c-.235-.539-.738-1.351-1.025-1.914-.159-.125-.329-.443-.314-.2-.6-1.9-2.06-3.1-2.617-4.769.1.178.3.393.221.251l-.8-1.238c-.052.164.03.206.1.523a3.14,3.14,0,0,1-.6-.768c.405.53.174-.108.093-.39-.01.061-.1,0-.118.039-.189-.779-.287.017-.681-.967l.086.014a8.381,8.381,0,0,1-.68-.967c.04-.226.269.327.387.29-.305-.511-.83-.875-.973-1.415.162.2.345.512.507.71a3.252,3.252,0,0,0-.411-1.021l.018.039-.437-.911.088.246c-.706-.451-.821-1.276-1.541-2.017.695.724.2.07.382.051-.088-.245-.238-.607-.142-.535-.354-.342-.3-.738-.811-1.217.032-.053-.249-.442-.079-.417-.346-.512-.008.173-.092.162-.635-.73-.926-2.043-1.829-3.1-.626-.89-.9-1.05-1.432-1.771l-.153-.265c-.018-.193.334.234.334.234a6.1,6.1,0,0,0-.8-1.389c.1.075.073-.047.04-.225-.237-.382-.32-.162-.549-.715a1.627,1.627,0,0,1,.413.28c-.309-.434-.658-.837-.976-1.288.008-.173.289.215.439.352a6.582,6.582,0,0,0-1.1-1.431l.152.369c-.119-.191.052-.164.159-.034.366.4.338.686.306.739l-.226-.321c-.072.506.831,1.333,1.21,2.023l-.3-.137-2.814-4.855c.042-.166.05-.264-.006-.209-.018.029-.04.061-.062.093l-.091-.156-.007-.052-.01.022-.024-.042-.041.07c-.151-.22-.225-.575-.957.353l-.3.831-.248.18.36-.637a1.644,1.644,0,0,0-.438.871.672.672,0,0,0-.3.247l-.216.862c-.139.039.02-.431-.316.036-.1.4.387-.219.12.392-.31.3-.331.148-.49.621-.092.026-.077-.084,0-.267a7.612,7.612,0,0,0-.542,1.275c-.342.3-.7,1.288-.892,1.129a4.949,4.949,0,0,1-.41,1.109c.114-.777-.764,1.284-.938.961A18.331,18.331,0,0,1,41.512,49.9a.525.525,0,0,1,.079-.235,6.632,6.632,0,0,1-.651.825c.152.168-.225.918-.336,1.376-.511.466-.019-.474-.3-.4.168.059-.423,1.079-.184.958-.364.372-.272.345-.557.48.189.212-.2.429-.262.875-.481.565-.313.036-.644.771-.263.289.012-.376.012-.376-.413.7-.019.432,0,.641-.439.872-.356.315-.613.55-.258.554-.331,1.051-.565,1.44-.046.012-.1.082-.085-.028-.183.638-.951,1.657-1.151,2.408a.226.226,0,0,1-.093.059.261.261,0,0,1,.3.041c-.18.318-.229.652-.413.7a.573.573,0,0,0,.1-.347L36,60c-.339.2.205-.486.082-.557a15.608,15.608,0,0,1-.955,1.981c-.222.01.617-1.191.089-.613l.507-.731c-.6.438.288-.456-.3-.076-.632.982-.572,1.177-1.2,2.157-.041.279.177,0,.135.281-.667,1.526-1.061.891-1.454,2.069a1.64,1.64,0,0,1-.449,1.246l-.035-.362c-.585.968-.06.711-.777,1.664.033-.224.384-.8.277-.668-.529.58-.168.529-.464,1.039l-.224.012c-.578,1.056-1.125,2.27-1.763,3.44-.011-.092.052-.318-.153-.078a43.853,43.853,0,0,1-2.728,4.439l-.17.617c-.074.124-.2.195-.146.044-.37.516.072.079-.025.374-.171.317-.318.364-.247.143a20.29,20.29,0,0,1-2.075,3.825L24,80.024c-.516.758-.23,1.06-.786,1.718l.056-.155c-.276.44-.546.9-.812,1.361l-.924,1.6.466.844.3.585a11.28,11.28,0,0,1,.482,1.091c.344.136.874,1.763,1.22,1.714a16.811,16.811,0,0,0,.9,2.256c.2.379.489.454.778.9l-.142.094.507.536.01.432.28.41c-.088-.177-.139-.4-.082-.4A4.626,4.626,0,0,1,27,94.764l1.023,1.521c-.08,0-.251-.257-.407-.446.63.764-.069.242.508.943-.025-.123.12.007.16.008a10.457,10.457,0,0,0,1.032,1.954l-.173-.068c.639,1.2,1.452,2.461,2.2,3.787-.22-.5.018-.493.254-.114l-.07.243c.238.2-.169-.439.24.009.261.505.009.433-.2.178l.394.571c-.027.062-.131-.066-.211-.068.237.192.428,1.127.8,1.388l-.028.06c.745,1.325,1.138,1.9,1.754,2.97.147-.055.355.384.645.644.4.817.794,1.757,1.343,2.706.445.633.225.131.475.388-.095.119.454,1.066.087.621.666,1.135.85,1.45,1.767,2.844-.038-.186-.116-.375-.023-.307.169.252.286.628.205.624l-.052-.062c1.1,1.524,1.758,3.959,2.746,5.11l-.054-.066.891,1.269c.327.63-.3-.318-.12.182,1.023,1.333,1.261,2.307,2.071,3.424.158,1.129,1.874,3.265,2.345,4.643l.045-.12a.693.693,0,0,1,.2.343l.03.153a.483.483,0,0,0,.025.088l.076.162c-.018-.187-.161-.464-.006-.3l.686,1.172.7,1.229.836-1.468.718-1.229,1.053-1.719c.711-1.145,1.431-2.288,2.115-3.428.6-1.011-.115-.831.817-2.007l-.047.456c.974-2.175,2.388-4.223,3.367-6.337-.031.141.014.171-.1.369a4.06,4.06,0,0,0,.806-1.638c.188-.309.126-.025.284-.192.31-.39.459-1.159.7-1.322.041-.028-.03.141-.066.225.1-.311.748-1.293.464-1.1.492-.724.76-1.486,1.18-2.047.073-.479.8-1.26.665-1.5.187.177.926-1.232,1.094-1.771-.025.2.3-.379.288-.139.306-.55.549-1.075.383-1.042.829-.863.934-2.147,1.588-2.527.8-1.694,1.57-3.244,2.345-4.737.187.175-.891,1.63-.628,1.7a34.752,34.752,0,0,1,1.787-3.694c.231-.34-.02.256-.051.4.693-1.438,1.532-2.672,2.11-3.973a.82.82,0,0,1-.089.3c.13-.247.351-.548.237-.576l-.107.252c-.362.308.246-1.135.195-1.221.05.572.758-1.179.746-.322.072-.171.138-.4.051-.4.153-.227.235-.281.173,0a15.466,15.466,0,0,1,.605-1.44c.046.03-.025.2-.015.313a5.182,5.182,0,0,1,.682-1.551c.006.056.087,0-.026.2a36.081,36.081,0,0,1,1.652-3.3c0,.487.309-.389.527-.355l.165-.356.275-.551ZM50.623,59.634l.014.03-.151-.552c.026-.254.106.153.194-.035-.233-.6.038-.941-.117-1.432a.816.816,0,0,0,.119-.153.232.232,0,0,0,.057-.031c.021-.017.013-.037,0-.075-.026-.06-.068-.252.063-.027l-.1-.183c-.094-.216.056.077.078.123-.075-.167-.087-.162-.139-.293a.819.819,0,0,1-.02-.3c.007-.027.016-.041.028-.039.025.055.058.146.084.217a1.642,1.642,0,0,1,.134.613,1.185,1.185,0,0,1,.1-.247c.054-.108.131-.125.094.045a.568.568,0,0,0-.14.121A.076.076,0,0,1,51,57.406c.008.006.006,0,.021.016l.048.065.092.133c.12.18.227.368.334.556a5.509,5.509,0,0,0,.712,1.064c-.061-.022-.109,0-.15-.066-.026.219.322.564.417.512.055.118-.069.076-.076.172.022.192.369.3.3.444-.01.025-.062-.021-.087-.044.113.067.256.47.332.3.095.306.36.481.408.741.23.054.2.5.434.426-.227.107.1.574.3.685-.1-.019.019.188-.11.174.117.193.261.347.352.248-.048.509.629.6.417.993a18.763,18.763,0,0,1,1.2,1.489c-.226.107-.358-.562-.57-.407.377.441.728.617.962,1.136.045.143-.135-.017-.2-.039.376.44.538.964.911,1.333-.021.01-.071-.024-.113-.059.057.082.086.22.178.152l-.076-.068c.061-.221.5.169.581.141-.365.017.183.474-.307.448.052.046.14.09.2.039.03.1.008.145-.116.1.234.278.274.108.435.389-.048.026-.1-.019-.172-.015a.768.768,0,0,1,.449.437c-.037,0-.058.051-.1-.019.252.4.651.549.823,1.048-.282-.012.022.191-.142.319l.193.209.03-.147c.12.212.358.322.406.536l-.165-.113.264.374-.063-.262c.216.159.211-.155.326.154-.051-.046.121.211.081.382h0a.516.516,0,0,1,.286.324c-.033.074-.216.083-.238.131.209.015.329.468.564.505a.179.179,0,0,0-.168.056l.171.015c.018.12.008.145-.076.173.143.3.185-.2.263.156-.022-.015-.036,0-.078-.027a1.35,1.35,0,0,1,.093.441,1.865,1.865,0,0,1,.026.552c-.2.109-.062-.315-.233-.189a8.849,8.849,0,0,1,.23,1.618l.022-.1c.294.069-.142.388,0,.649-.022-.064-.163-.082-.13-.066a4.683,4.683,0,0,0,.169,1.262l-.075-.066a5.99,5.99,0,0,0-.07.777c.076.067.064.2.173.116-.425.7.235,1.328-.119,1.948,0-.074-.067-.176-.067-.117l.071.526c.128-.042.077-.069.176-.18a.507.507,0,0,1,.136.346c-.086-.237-.2,0-.275.1.039-.017.082.018.121.009-.226.275.257.046.106.422l-.067-.02a1.129,1.129,0,0,1,.1.422c-.148.063-.068-.15-.19-.16.008.213.278.421.13.613-.041-.091-.041-.221-.082-.311a.52.52,0,0,0-.158.39l0-.015-.08.36.047-.092c.384.267.068.543.318.9-.237-.349-.138-.058-.3-.085-.047.092-.1.231-.146.191.134.17-.108.283.088.523-.054.01-.006.182-.141.143.041.22.094-.052.161-.033.183.341-.226.8.024,1.288.094.389.254.489.348.807v.11c-.082.062-.172-.134-.172-.134a.807.807,0,0,0-.006.574c-.046-.041-.086,0-.147.062.013.161.2.109.115.321a.746.746,0,0,1-.215-.162c.048.19.15.379.194.575-.095.051-.14-.12-.2-.189.04.22.076.571.224.641l.056-.141c.006.081-.129.04-.155-.02a.174.174,0,0,1,.11-.282l.033.14c.319-.141-.044-.562-.025-.844l.187.1c0,.147,0,.294,0,.44,0,.414-.011.827-.019,1.24-.027-.029-.054-.058-.079-.089a.525.525,0,0,0-.067-.19c.041-.04.088,0,.121.01a.392.392,0,0,0-.343-.212c-.072-.134-.169-.256-.026-.328a.849.849,0,0,1-.384-.258c.383.078-.256-.47.049-.568-.323-.035-.453-.544-.752-.766.028.006.083.017.087.05a1.048,1.048,0,0,1-.059-.4c-.2.088-.394-.146-.591-.219.061-.309.292,0,.427-.169-.145.1-.358-.266-.444-.123.02-.221-.024-.166.083-.337-.249.109-.125-.122-.344-.167-.017-.293.185-.186-.031-.392,0-.16.214.012.214.012-.144-.254-.241-.018-.374-.012-.226-.272.048-.215.078-.37-.157-.161-.4-.211-.478-.355.023-.028.018-.061.072-.05-.256-.117-.352-.587-.663-.715a.11.11,0,0,1,.026-.056.564.564,0,0,1-.221.177c-.07-.111-.234-.145-.144-.254.037.071.087.05.142.061l-.119-.089c.1-.2.152.129.274.057-.189-.2-.484-.389-.541-.594.14-.131.3.382.3.062l.1.311c.132-.359.079.177.24-.176-.164-.388-.319-.355-.482-.743-.137-.028-.117.1-.254.076-.461-.417.171-.641-.265-.89-.164-.034-.391.047-.44-.284l.236-.015c-.186-.36-.379-.046-.47-.483.11.023.221.239.212.173.006-.321-.2-.107-.309-.289l.14-.133c-.243-.357-.6-.7-.87-1.092.061-.006.153.035.147-.09a5.7,5.7,0,0,1-.827-1.678L54,76.416c-.024-.046.015-.12.07-.087-.061-.226-.094.041-.2-.02-.075-.105-.006-.194.078-.148a2.67,2.67,0,0,1-.892-1.283l.083.047c-.109-.316-.474-.151-.5-.49l.054.036a7.452,7.452,0,0,1-.886-1.844c-.254.029-.266-.66-.57-.535a2.608,2.608,0,0,0-.152-.909c-.065-.139-.29-.094-.415-.24l.145-.09a.546.546,0,0,0-.256-.083.65.65,0,0,1,.173-.11.127.127,0,0,1-.045-.051.177.177,0,0,1-.123.082c-.039-.031-.016-.214.029-.347s.113-.23.156-.234c-.056-.2-.113-.41-.161-.634.068.014.093.125.138.212-.178-.352.178-.065.015-.386-.038.043-.1-.023-.136-.03a1.4,1.4,0,0,0,.05-.8l.118.05c.026-.486-.061-1.021-.061-1.566-.054.2-.257.153-.278-.007l.18-.065c-.112-.1-.067.167-.2-.043.02-.2.2-.139.263-.022l-.063-.247c.054-.015.082.043.151.057-.112-.1.179-.428-.015-.573l.053-.014c0-.544-.063-.79-.075-1.232-.155-.008-.121-.181-.247-.313a5.533,5.533,0,0,0,.154-1.08c-.078-.275-.132-.08-.225-.2.141-.02.126-.412.229-.209a6.759,6.759,0,0,0-.142-1.2c-.058.065-.083.137-.132.1-.023-.108.061-.246.129-.231l.014.029C50.288,61.04,50.916,60.167,50.623,59.634ZM60.748,87.978a.265.265,0,0,0-.187-.119.206.206,0,0,0,0-.092.6.6,0,0,0,.19.188A.1.1,0,0,1,60.748,87.978Zm.122.537a.233.233,0,0,1-.028-.019.516.516,0,0,1,.029-.116C60.871,88.425,60.871,88.47,60.87,88.515Zm.046-9.631c0,.063,0,.126,0,.189-.057-.012-.107-.057-.138-.182A.416.416,0,0,1,60.917,78.884ZM60.9,84.817a.324.324,0,0,1-.13-.152l.131-.078C60.9,84.664,60.9,84.741,60.9,84.817ZM60.9,86.4l-.147-.225a.16.16,0,0,1,.148-.047C60.9,86.219,60.9,86.309,60.9,86.4Zm-.023,1.853A.3.3,0,0,0,60.8,88.2a.085.085,0,0,1,.078-.035C60.875,88.193,60.875,88.223,60.874,88.254Zm-5.91-9.819-.082-.116,0,0Zm-.374-.61c.03.063.073.139.12.218-.036.045-.094.054-.121,0C54.637,78.054,54.6,77.922,54.591,77.824ZM62.057,62.6a.168.168,0,0,1-.1.083l-.268-.463C61.751,62.223,61.861,62.32,62.057,62.6ZM53.971,48.645l0,.254-.322-.556A1.156,1.156,0,0,1,53.971,48.645Zm-2.1-3.657c.02.108.009.21-.053.2l-.39-.672ZM29.7,70.564l-.187.347,0,0ZM29.064,71.7c.075-.022.092.059.008.2.013-.094-.2.217-.362.4Z" transform="translate(-21.531 -39.011)"/><path class="aa" d="M28.668,134.988l.033-.021-.1-.105Z" transform="translate(-24.7 -81.948)"/><path class="ab" d="M91.522,75.125A.269.269,0,0,0,91.5,75,.35.35,0,0,0,91.522,75.125Z" transform="translate(-52.88 -55.129)"/><path class="ac" d="M87.952,68.812l-.222-.495C87.82,68.535,87.892,68.69,87.952,68.812Z" transform="translate(-51.192 -52.132)"/><path class="ad" d="M85.52,64.533a.172.172,0,0,0-.086-.017l0,.006Z" transform="translate(-50.164 -50.429)"/><path class="ae" d="M109.226,138.645a1.07,1.07,0,0,0-.049.1C109.073,138.993,109.151,138.83,109.226,138.645Z" transform="translate(-60.779 -83.643)"/><path class="af" d="M115.055,116.038c.1.113.195.225.287.349C115.228,116.167,115.134,116,115.055,116.038Z" transform="translate(-63.436 -73.511)"/><path class="ag" d="M95.782,163.261l0,0-.047.083Z" transform="translate(-54.778 -94.672)"/><path class="ah" d="M115.575,116.675a4.046,4.046,0,0,0,.321.559A2.632,2.632,0,0,0,115.575,116.675Z" transform="translate(-63.669 -73.799)"/><path class="ai" d="M74.014,44.333c-.008.007-.019,0-.03,0l.1.127Z" transform="translate(-45.033 -41.385)"/><path class="aj" d="M73.813,44.1a.346.346,0,0,0,.094.126Z" transform="translate(-44.957 -41.282)"/><path class="ak" d="M73.452,43.62l.2.266A.755.755,0,0,0,73.452,43.62Z" transform="translate(-44.795 -41.066)"/><path class="al" d="M77.756,50.739,77.7,50.73c.165.118.318.819.534,1A7.107,7.107,0,0,0,77.756,50.739Z" transform="translate(-46.698 -44.252)"/><path class="am" d="M109.413,105.687l-.207-.1.331.488Z" transform="translate(-60.815 -68.831)"/></g><g transform="translate(48.347)"><g transform="translate(0.496)"><path class="an" d="M117.98,19.077l1.779.136-1.779.135a3.2,3.2,0,0,0-2.952,2.952l-.136,1.779-.135-1.779a3.2,3.2,0,0,0-2.952-2.952l-1.779-.135,1.779-.136a3.2,3.2,0,0,0,2.952-2.952l.135-1.779.136,1.779A3.2,3.2,0,0,0,117.98,19.077Z" transform="translate(-110.025 -14.346)"/></g><g transform="translate(18.361 4.867)"><path class="an" d="M152.461,29.153l2.251.172-2.251.171a4.057,4.057,0,0,0-3.737,3.738l-.172,2.251-.171-2.251a4.058,4.058,0,0,0-3.737-3.738l-2.252-.171,2.252-.172a4.057,4.057,0,0,0,3.737-3.737l.171-2.251.172,2.251A4.056,4.056,0,0,0,152.461,29.153Z" transform="translate(-142.392 -23.164)"/></g><g transform="translate(0 19.768)"><path class="an" d="M125.723,60.032l3.712.283-3.712.283a6.687,6.687,0,0,0-6.16,6.16l-.282,3.711L119,66.758a6.687,6.687,0,0,0-6.16-6.16l-3.712-.283,3.712-.283a6.687,6.687,0,0,0,6.16-6.16l.283-3.711.282,3.711A6.687,6.687,0,0,0,125.723,60.032Z" transform="translate(-109.126 -50.161)"/></g></g><g transform="translate(24.371 60.246)"><path class="a" d="M150.154,138.491l.205-.156-.268-.208a.331.331,0,0,1-.161-.073,3.218,3.218,0,0,0-.651-.472,2.347,2.347,0,0,1-.462-.288.66.66,0,0,1-.212-.238c-.047-.033-.132-.091-.282-.187a.861.861,0,0,1-.271-.278c-.265-.181-.5-.36-.7-.513-.151-.115-.285-.219-.4-.3l.006-.01h0l-.036.042-.117-.081c-.057-.039-.1-.071-.143-.1a.6.6,0,0,1-.374-.1c-.131-.1-.281-.189-.426-.279-.344-.214-.479-.3-.535-.412l-.074-.141a.785.785,0,0,0-.161-.066,2.7,2.7,0,0,1-.672-.333l-.231-.14c-.077-.031-.158-.071-.241-.113-.185-.118-.31-.191-.408-.243l-.1-.023a2.783,2.783,0,0,1-.584-.275l-.331-.2c-.124-.072-.253-.158-.387-.247a5.086,5.086,0,0,0-.811-.468.549.549,0,0,1-.246-.231l-.008,0c-.115-.05-.213-.1-.3-.141l-.035.071-.118-.047-.081-.032-.031.04a4.623,4.623,0,0,0-.767-.413,7.8,7.8,0,0,1-.7-.355l-.2-.121.07-.1c-.354-.184-.693-.331-1.075-.5-.264-.114-.552-.238-.874-.389l-.014,0a3.127,3.127,0,0,1-.6-.237c-.166-.075-.341-.155-.49-.211l-.471-.181.119-.058c-.059-.02-.134-.051-.232-.093a3.992,3.992,0,0,0-.571-.209l-.087.023-.04-.05-.471-.27a5.513,5.513,0,0,0-.969-.33,6.391,6.391,0,0,1-.952-.315l.022-.068-.121-.07a3.593,3.593,0,0,0-.4-.143,4.942,4.942,0,0,1-.651-.245l-.05-.007a2.153,2.153,0,0,1-.462-.12l-.054-.027-.059-.014a1.386,1.386,0,0,0-.14-.031V127.7l-.022.043a17.207,17.207,0,0,0-1.915-.718c-.539-.179-1.047-.349-1.391-.5l-2.49-.676-.056,0a3.324,3.324,0,0,1-.826-.177c-.1-.037-.228-.088-.272-.19l-.264-.052a7.094,7.094,0,0,1-1.027-.252l0-.018c-.217-.057-.481-.1-.775-.156-.316-.055-.675-.118-1.046-.209l-.1-.024c-.563-.042-1.453-.167-2.266-.285l-.058-.008a3.284,3.284,0,0,1-.333-.037l-.088-.025-1.681-.246.744-.042c-.1-.012-.2-.024-.29-.038l-.394-.063c-.2-.012-.357-.016-.507-.019-.237,0-.464-.01-.848-.046l-.174.007a2.064,2.064,0,0,1-.619-.05,1.8,1.8,0,0,0-.477-.05h-.067l-.175-.107-.192-.01c-.186-.011-.416-.025-.663-.017-.392.007-.817.011-1.174.007l0-.033c-.346.01-.738,0-1.172-.012l-.458-.018.073-.085c-.33-.026-.859-.04-1.218-.05-.432-.012-.8-.022-1.008-.043-.687.06-1.426.077-2.06.088l-1.1.02-.82.082a.506.506,0,0,1-.3.1l.05.056-.416.054a3.874,3.874,0,0,1-.584.057l-1.12.039a.38.38,0,0,1-.219-.062l-.4.087a6.011,6.011,0,0,1-1.074.151,5.3,5.3,0,0,0-1.047.157l-.008-.03-.43.078a10.84,10.84,0,0,0-1.871.429l-.075.019a.594.594,0,0,1-.214-.013c-.534.124-1.1.274-1.655.419l-2.413.622a2.454,2.454,0,0,1-.475.137l-.178.033a7.827,7.827,0,0,1-.837.264l-.013-.04a10.606,10.606,0,0,0-1.316.431l-.317.132c-.358.148-.715.3-1.138.451l-.219.08-.02-.069c-.316.06-1.081.3-1.357.383l-.209.065c-.62.237-1.159.471-1.681.7l-.445.2c-.477.209-.97.426-1.5.684-.482.152-1.262.485-1.958.786-.363.161-.739.339-1.1.513-.344.163-.68.323-.992.461l.14-.023-.274.14a2.168,2.168,0,0,1-.275.167,4.041,4.041,0,0,0-.463.242c-.257.148-.39.226-.518.183-.227.095-.552.268-.828.415l-.2.1-.03.162-.115.045a17.991,17.991,0,0,0-2.573,1.394,13.012,13.012,0,0,1-1.463.824c-.1.072-.214.147-.328.224-.2.136-.408.275-.58.409l-.259.2-.027-.1c-.647.4-1.083.681-1.977,1.316l-.024-.028a3.314,3.314,0,0,0-.369.366,3.55,3.55,0,0,1-.529.5l-.041.031-.208.04-.9.663,1.011.786a10.467,10.467,0,0,0,.993.677l.681.409h-.193c.283.2.541.371.7.469L69,140.4l.2.444a15.33,15.33,0,0,0,1.5.889l.484.261c.14.068.31.161.592.321a.556.556,0,0,1,.164.145,2.282,2.282,0,0,0,.212.108,4.539,4.539,0,0,1,.583.321l-.018.035a2.3,2.3,0,0,0,.373.174l.173.067a6.608,6.608,0,0,1,1.086.685,3.276,3.276,0,0,1,.724.321l.059.051.049.06c.326.177.6.3.841.42a8.711,8.711,0,0,1,.889.464l.084.052.013.074c.277.119.506.226.69.326a.889.889,0,0,1,.112.085c.083.04.163.074.24.1l.076.04c.1.055.183.1.273.146l.022-.052a4.184,4.184,0,0,1,.807.358l1.452.257-.663.048c.142.085.3.174.446.257a5.026,5.026,0,0,1,.52.314c.185.072.379.154.578.238.3.125.6.253.9.361a10.513,10.513,0,0,0,1.271.395,1.18,1.18,0,0,1,.413.2.481.481,0,0,0,.044.032l.037.022.151.056a7.966,7.966,0,0,0,.987.331l.065-.013.036.028A.883.883,0,0,1,85.8,149l.19.062-.007.033a18.806,18.806,0,0,0,2.209.718l.108.03c.224.063.451.122.684.182s.44.113.669.176l-.014-.012.265.083c.167.049.339.1.517.162l.517.162c.5.157,1.018.32,1.539.449l3.682.822c.678.12,1.275.237,1.814.357a4.333,4.333,0,0,0,.856.112c.085,0,.176.007.293.015l.057,0,.135.089.2.013c.15.01.3.02.451.022a9.638,9.638,0,0,1,1.3.173l.033.006-.079-.03,2.532.259c.112.012.213.019.294.024a1.5,1.5,0,0,1,.206.023,1.055,1.055,0,0,1,.338,0l.132.03.982-.015c.314.019.492.036.581.145.068.011.223.026.578.041.119,0,.262,0,.4-.007l-.06-.148.779-.021h.071c1.859,0,3.778-.1,5.7-.285a2.221,2.221,0,0,0,.429-.038l.222-.029c.065,0,.13-.008.216-.006h.063l.351-.057.014.058c.383-.028.687-.078.938-.118a3.769,3.769,0,0,1,.56-.066c.159-.032.259-.054.322-.069l.012-.063.155-.024c.224-.034.445-.07.667-.106l.029,0,.259.026.079-.066.061-.009a2.738,2.738,0,0,1,.3-.035l.025-.039.431-.077c.224-.03.461-.071.682-.109.246-.042.423-.072.555-.089a1.961,1.961,0,0,1,.258-.087l.069-.02.068.024a1.842,1.842,0,0,0,.42-.1,4.669,4.669,0,0,1,.711-.167l.476-.062.265-.045c.18-.03.365-.06.514-.1a2.6,2.6,0,0,1,.655-.206c.322-.079.723-.179,1.064-.3l.913-.324-.136.136.288-.075c.358-.094.735-.193,1.007-.26a4.174,4.174,0,0,1,.652-.249c.21-.071.438-.146.633-.225l.334-.135-.008.084c.089-.039.2-.083.346-.137l.972-.364-.1.094c.216-.083.442-.165.684-.246l.049-.145,1.012-.371-.017.041.163-.062,0,.019.536-.156c.045-.023.093-.043.137-.062.315-.125.427-.162.531-.135l.064-.019c.063-.035.155-.075.248-.114l.126-.054-.009-.043.176-.068a.954.954,0,0,1,.316-.077c.6-.263.875-.391,1-.454l-.02-.046.049-.024c.485-.251,1.012-.47,1.522-.682.55-.229,1.118-.465,1.624-.738l.221-.119.009.023c.156-.081.317-.162.477-.242.4-.2.778-.392,1.023-.548a1.371,1.371,0,0,1,.459-.173l.178-.1a8.692,8.692,0,0,1,.907-.47l.023.041a5.874,5.874,0,0,0,.841-.477l.068.087-.012-.074a2.531,2.531,0,0,0,.283-.14l-.02-.039c.3-.179.566-.326.837-.474l.9-.5-.1.142c.245-.152.473-.307.689-.458.264-.183.562-.381.885-.567a.394.394,0,0,1,.081-.1l.035-.027c.338-.206.7-.389.966-.521.153-.077.273-.136.332-.173a3.3,3.3,0,0,0,.66-.48,4.255,4.255,0,0,1,.512-.406c.044-.136.217-.277.47-.471.365-.248.586-.369.73-.321l.06-.04-.013-.019.126-.088C149.644,138.881,149.838,138.733,150.154,138.491Zm-3.715.033c-.093.057-.183.109-.254.143a2.541,2.541,0,0,1-.324.161,27.1,27.1,0,0,1-2.406,1.489c-.213.122-.429.246-.652.375a.428.428,0,0,1-.206.2l.065.033-.34.206a3.2,3.2,0,0,1-.466.262c-.3.145-.608.289-.921.423a.347.347,0,0,1-.227.017.562.562,0,0,1-.084.014.345.345,0,0,0-.1.03.611.611,0,0,1-.127.11l.03.059a4.306,4.306,0,0,1-.917.466,4.456,4.456,0,0,0-.812.394l-.018-.028-.314.164c-.534.28-1.266.662-1.556.867l-.067.032a.513.513,0,0,1-.2.025c-.334.157-.684.334-1.025.507-.187.095-.374.189-.559.281-.586.276-1.194.557-1.678.728l-.129.045a2.133,2.133,0,0,1-.445.2l-.164.05a6.417,6.417,0,0,1-.72.3l-.019-.042c-.492.182-.874.363-1.245.539a12.28,12.28,0,0,1-1.205.519l-.213.076-.022-.068c-.286.053-.955.262-1.2.337l-.413.129-3.194,1.1c-.435.058-1.2.241-1.818.4l-1.133.28c-.319.072-.629.125-.915.173-.014.01-.028.021-.044.031l.156.025-.4.076-.114.031a4.132,4.132,0,0,0-.418.094c-.3.077-.447.117-.559.035-.185.02-.443.072-.663.116l-.322.063-.072.148-.135,0a15.714,15.714,0,0,0-2.119.266,8.5,8.5,0,0,1-2.01.206c-.15.027-.316.049-.481.071s-.343.046-.495.074l-.315.059.018-.1-.832.065c-.2.015-.405.023-.644.031-.188.007-.4.014-.636.026l-.006-.036a2.577,2.577,0,0,0-.428.093,2.656,2.656,0,0,1-.68.118l-.058,0-.17-.087a15.757,15.757,0,0,1-1.585-.019,14.756,14.756,0,0,0-1.554-.018l-.736.044.157-.117-.355-.017c-.095,0-.193,0-.28-.006l-.1,0,.031.373-.4-.366c-.209-.046-1.068-.07-1.445-.081l-.9-.026,0,0c-.086,0-.186-.009-.305-.017a.5.5,0,0,1-.2-.059c-.063,0-.113-.006-.16-.007a3.41,3.41,0,0,1-.653-.08l-.323-.062h-.035l-.168,0a5.514,5.514,0,0,1-1.14-.231,2.824,2.824,0,0,1-.716-.054l-.082-.035L98,150.106c-.274-.054-.505-.089-.715-.121a7.1,7.1,0,0,1-.991-.2l-.1-.031-.026-.067c-.232-.035-.46-.077-.658-.126a1,1,0,0,1-.111-.048l-.071-.017c-.055-.009-.108-.017-.16-.023l-.352-.091-.01.057a3.441,3.441,0,0,1-.769-.164l-1.416.094.684-.231c-.146-.061-.313-.124-.467-.182l-.044-.016-.292-.073.1,0a2.079,2.079,0,0,1-.268-.118c-.363-.077-.765-.187-1.154-.293a9.4,9.4,0,0,0-1.4-.319,1,1,0,0,1-.407-.163.357.357,0,0,0-.037-.024l-.029-.015c-.156-.044-.318-.09-.47-.135a3.051,3.051,0,0,0-.57-.153l-.071.018-.039-.033a.8.8,0,0,1-.3-.172l-.16-.053.007-.031c-.636-.262-1.209-.437-1.764-.605-.493-.151-1-.3-1.548-.519l.07.079-.96-.446c-.632-.294-1.285-.576-1.941-.86A37.513,37.513,0,0,1,77.368,143a3.5,3.5,0,0,0-.662-.3c-.085-.029-.174-.061-.291-.11l-.057-.024-.086-.12-.546-.216a6.983,6.983,0,0,1-1.059-.619l.077.081-1.409-.809a9.021,9.021,0,0,1-1-.611.863.863,0,0,1-.268-.151l-.1-.084v0c-.257-.135-.512-.272-.764-.415-.214-.144-.371-.251-.394-.4-.049-.04-.16-.121-.413-.285-.088-.054-.2-.116-.306-.178l-.036.152-.518-.31-.034.009-.082-.056.008-.017-.008,0-.463-.1.177-.12h0l.378-.255h0c.758-.509,1.952-1.283,3.492-2.19l-.1.028,1.568-.884-.018.021.34-.189.054.083a7.544,7.544,0,0,0,.667-.38,2.348,2.348,0,0,1,.545-.282c.118-.069.193-.114.24-.145V134.1l.14-.146.5-.247.3-.069.034-.057.061-.029a2.411,2.411,0,0,1,.245-.108.433.433,0,0,1,.106-.108l.055-.031c.193-.072.438-.2.676-.316s.424-.212.559-.265a1.773,1.773,0,0,1,.21-.126l.068-.038.077.014a1.792,1.792,0,0,0,.332-.161,3.785,3.785,0,0,1,.6-.284l.411-.141c.1-.04.2-.078.3-.116.127-.048.252-.094.359-.141a3.182,3.182,0,0,1,.773-.389c.227-.1.479-.205.7-.313l.756-.361-.075.107,1.124-.4A4.344,4.344,0,0,1,85.4,130c.119-.049.239-.1.348-.145l.31-.134v.073c.083-.039.18-.079.3-.123l.859-.32-.069.075c.183-.072.373-.144.578-.212l-.016-.047.2-.166.692-.231,0,.043.284-.088,0,.018,1.352-.334-.209.111.014,0a2.325,2.325,0,0,1,.231-.086l.1-.034-.006-.044.181-.055a.835.835,0,0,1,.3-.043c.122-.046.324-.111.521-.174.137-.044.311-.1.415-.136l-.014-.051.045-.015c.563-.182,1.161-.317,1.739-.448.433-.1.881-.2,1.295-.316l.238-.067,0,.031c.152-.035.308-.07.462-.1.392-.087.761-.17,1.009-.249a1.235,1.235,0,0,1,.456-.03l.191-.049a6.105,6.105,0,0,1,.89-.169l.009.046.083-.01a4.928,4.928,0,0,0,.774-.144l.043.125.021-.094a1.945,1.945,0,0,0,.273-.023l-.006-.044c.314-.056.592-.093.872-.13l.925-.123-.136.093.385-.066a12.1,12.1,0,0,1,1.266-.172.386.386,0,0,1,.113-.054l.049-.009a9.754,9.754,0,0,1,1-.01c.148,0,.263.008.323,0a4.115,4.115,0,0,0,.678-.081,3.584,3.584,0,0,1,.631-.076,1.138,1.138,0,0,1,.6-.137c.392-.009.637.018.73.146a1.8,1.8,0,0,1,.206.013V125.7c.233,0,.432,0,.627-.012.262-.009.512-.018.813,0a.3.3,0,0,1,.161-.03,2.611,2.611,0,0,0,.711.008,1.88,1.88,0,0,1,.5-.031.627.627,0,0,1,.294.082h.128l-.336-.12,2.215.3.139.018a.565.565,0,0,1,.352-.079h.022l.023,0c.1.019.25.03.395.041.363.029.541.046.646.137l.092.081a.914.914,0,0,0,.14-.012,2.21,2.21,0,0,1,.686,0l.249.024a2.209,2.209,0,0,1,.241,0c.071.014.132.026.187.035l.278.026.043-.008a2.339,2.339,0,0,1,.589.036l.361.063c.141.023.286.056.435.091a5.143,5.143,0,0,0,.787.138.522.522,0,0,1,.29.135c.11.013.206.027.29.042l.014-.079.114.01.087.007.02-.045a3.262,3.262,0,0,0,.7.152,4.889,4.889,0,0,1,.762.153l.22.067-.04.114c.29.069.572.114.914.167.309.052.615.117.943.2l.013,0a2.135,2.135,0,0,1,.608.117c.153.041.315.085.451.111l.47.091-.1.081c.053.01.119.025.2.044a3.36,3.36,0,0,0,.525.1l.092-.045.052.054.449.2a5.065,5.065,0,0,0,.874.209,5.446,5.446,0,0,1,.9.213l1.781.573.011-.024c.049.026.1.052.157.078l.127.041-.05-.006c.373.167.853.329,1.254.465a9.957,9.957,0,0,1,1.465.617c.128.045.3.106.469.168.454.164.924.334,1.3.5l.33.147c.035.009.067.014.1.02a2.384,2.384,0,0,1,.742.268c.079.049.2.123.224.23l.16.062a4.682,4.682,0,0,1,.926.433l.1.066c.156.072.338.145.538.224.269.107.574.228.885.379l.126.061c.412.146.975.409,1.479.646l.413.193a2.808,2.808,0,0,1,.28.12l.049.032,1.485.687-.833-.185c.119.056.233.111.327.167l.368.219c.116.054.215.1.311.137a7.075,7.075,0,0,1,.735.356l.141.054a1.681,1.681,0,0,1,.5.27,1.416,1.416,0,0,0,.37.21l.064.028.123.173c.35.18,1.078.554,1.6.852l-.014.03c.267.142.567.321.912.54l.364.232-.1.04.052.038.888.616Z" transform="translate(-65.687 -123.5)"/><path class="a" d="M120.916,170.942a.158.158,0,0,0,.049.049v0h0l.007-.037Z" transform="translate(-90.433 -144.757)"/><path class="a" d="M106.387,133.513v0h0Z" transform="translate(-83.923 -127.986)"/><path class="a" d="M126.286,129.111a.173.173,0,0,0,0-.041l-.156.029.007.021C126.176,129.12,126.224,129.117,126.286,129.111Z" transform="translate(-92.769 -125.996)"/><path class="a" d="M179.17,133.861v0Z" transform="translate(-116.534 -128.142)"/><path class="a" d="M154.017,176.475h0c.046,0,.1,0,.166,0l-.035-.2A.219.219,0,0,0,154.017,176.475Z" transform="translate(-105.264 -147.145)"/><path class="a" d="M215.176,153.177l.066.118c.016-.016.033-.033.057-.054a.182.182,0,0,1,0-.039A.183.183,0,0,0,215.176,153.177Z" transform="translate(-132.667 -136.796)"/><path class="a" d="M86.142,162.867l.01,0-.008-.009Z" transform="translate(-74.852 -141.137)"/><path class="a" d="M204.115,160.379l-.129.079.013.017c.035-.014.078-.034.13-.06A.166.166,0,0,0,204.115,160.379Z" transform="translate(-127.654 -140.024)"/><path class="a" d="M86.179,162.937a.158.158,0,0,0-.023-.047l-.015.031Z" transform="translate(-74.851 -141.149)"/><path class="an" d="M149.09,140.208c-.093.057-.183.109-.254.143a2.542,2.542,0,0,1-.324.161A27.092,27.092,0,0,1,146.105,142c-.212.122-.429.246-.652.375a.428.428,0,0,1-.206.2l.065.033-.34.206a3.192,3.192,0,0,1-.466.262c-.3.145-.608.289-.921.423a.347.347,0,0,1-.227.017.567.567,0,0,1-.084.014.343.343,0,0,0-.1.03.611.611,0,0,1-.127.11l.03.059a4.306,4.306,0,0,1-.917.466,4.457,4.457,0,0,0-.812.394l-.018-.028-.314.164c-.534.28-1.266.662-1.556.867l-.067.032a.514.514,0,0,1-.2.025c-.334.157-.684.334-1.025.507-.187.095-.374.189-.559.281-.586.276-1.194.557-1.678.728l-.129.045a2.131,2.131,0,0,1-.445.2l-.164.05a6.417,6.417,0,0,1-.72.3l-.019-.042c-.492.182-.874.363-1.245.539a12.289,12.289,0,0,1-1.205.519l-.213.076-.022-.068c-.286.053-.955.262-1.2.337l-.413.129-3.194,1.1c-.435.058-1.2.241-1.818.4l-1.133.28c-.319.072-.629.125-.915.173-.014.01-.028.021-.044.031l.156.025-.4.076-.114.031a4.129,4.129,0,0,0-.418.094c-.3.077-.447.117-.559.035-.185.02-.443.072-.663.116l-.322.063-.072.148-.135,0a15.714,15.714,0,0,0-2.119.265,8.5,8.5,0,0,1-2.01.206c-.15.027-.316.049-.481.071s-.343.046-.495.075l-.315.059.018-.1-.832.065c-.2.015-.405.023-.644.031-.188.007-.4.014-.636.027l-.006-.036a2.577,2.577,0,0,0-.428.093,2.654,2.654,0,0,1-.68.118l-.058,0-.17-.087a15.766,15.766,0,0,1-1.585-.019,14.756,14.756,0,0,0-1.554-.018l-.736.044.157-.117-.355-.017c-.095,0-.193,0-.28-.006l-.1,0,.031.373-.4-.366c-.209-.046-1.068-.07-1.445-.081l-.9-.026,0,0c-.086,0-.186-.009-.305-.017a.5.5,0,0,1-.2-.059c-.063,0-.113-.006-.16-.007a3.412,3.412,0,0,1-.653-.08l-.323-.062h-.035l-.168,0a5.512,5.512,0,0,1-1.14-.231,2.823,2.823,0,0,1-.716-.054l-.082-.035-.065-.045c-.274-.054-.505-.089-.715-.121a7.1,7.1,0,0,1-.991-.2l-.1-.031-.026-.067c-.232-.035-.46-.077-.658-.126a.994.994,0,0,1-.112-.048l-.071-.017c-.055-.009-.108-.017-.16-.023l-.352-.091-.01.057a3.439,3.439,0,0,1-.769-.164l-1.416.094.684-.231c-.146-.061-.314-.124-.467-.182l-.044-.016-.292-.073.1,0a2.068,2.068,0,0,1-.268-.118c-.363-.077-.765-.187-1.154-.293a9.4,9.4,0,0,0-1.4-.319,1,1,0,0,1-.407-.163.355.355,0,0,0-.037-.024l-.029-.015c-.156-.044-.318-.091-.47-.135a3.047,3.047,0,0,0-.57-.153l-.071.018-.039-.033a.8.8,0,0,1-.3-.172l-.16-.053.007-.031c-.636-.262-1.209-.437-1.764-.605-.493-.151-1-.3-1.548-.519l.07.079-.96-.446c-.632-.294-1.285-.576-1.941-.86a37.515,37.515,0,0,1-4.18-2.016,3.5,3.5,0,0,0-.662-.3c-.085-.029-.174-.061-.291-.11l-.057-.024-.086-.12-.546-.216a6.982,6.982,0,0,1-1.059-.619l.077.081-1.409-.809a9.018,9.018,0,0,1-1-.611.862.862,0,0,1-.268-.151l-.1-.084v0c-.257-.135-.512-.272-.764-.415-.214-.144-.371-.251-.394-.4-.049-.04-.16-.121-.413-.285-.088-.054-.2-.116-.306-.178l-.036.152-.518-.31-.034.009-.082-.056.008-.017-.008,0-.463-.1.177-.12h0l.378-.255h0c.758-.509,1.952-1.283,3.492-2.19l-.1.028,1.568-.884-.018.021.34-.189.054.083a7.537,7.537,0,0,0,.667-.38,2.349,2.349,0,0,1,.545-.282c.118-.069.193-.114.24-.145v-.018l.14-.146.5-.247.3-.069.034-.057.061-.029a2.4,2.4,0,0,1,.245-.108.432.432,0,0,1,.106-.108l.055-.031c.193-.072.438-.2.676-.316s.424-.212.559-.265a1.775,1.775,0,0,1,.21-.126l.068-.038.077.014a1.789,1.789,0,0,0,.332-.161,3.783,3.783,0,0,1,.6-.284l.411-.141c.1-.04.2-.078.3-.116.127-.048.252-.094.359-.141a3.179,3.179,0,0,1,.773-.389c.227-.1.479-.205.7-.313l.756-.361-.075.107,1.124-.4a4.344,4.344,0,0,1,.795-.374c.119-.049.239-.1.348-.145l.31-.134v.073c.083-.039.18-.079.3-.123l.859-.32-.069.075c.183-.072.373-.144.578-.213l-.016-.047.2-.166.692-.231,0,.043.284-.088,0,.018,1.352-.334-.209.111.014,0a2.332,2.332,0,0,1,.231-.086l.1-.034-.006-.044.181-.055a.835.835,0,0,1,.3-.043c.122-.046.324-.111.521-.174.137-.044.311-.1.415-.136l-.014-.051.045-.015c.563-.182,1.161-.317,1.739-.448.433-.1.881-.2,1.295-.316l.238-.067,0,.031c.152-.035.308-.07.462-.1.392-.087.761-.17,1.009-.249a1.235,1.235,0,0,1,.456-.03l.191-.049a6.1,6.1,0,0,1,.89-.169l.009.046.083-.01a4.924,4.924,0,0,0,.774-.143l.042.125.021-.094a1.939,1.939,0,0,0,.273-.023l-.006-.044c.314-.056.592-.093.872-.13l.925-.123-.136.093L104,127.8a12.1,12.1,0,0,1,1.266-.172.386.386,0,0,1,.113-.054l.049-.009a9.758,9.758,0,0,1,1-.01c.148,0,.263.008.323,0a4.119,4.119,0,0,0,.678-.081,3.584,3.584,0,0,1,.631-.076,1.138,1.138,0,0,1,.6-.137c.392-.009.637.018.73.146a1.8,1.8,0,0,1,.206.013v-.032c.233,0,.432,0,.627-.012.262-.009.512-.018.813,0a.3.3,0,0,1,.161-.03,2.609,2.609,0,0,0,.711.008,1.881,1.881,0,0,1,.5-.031.627.627,0,0,1,.294.082h.128l-.336-.12,2.215.3.139.018a.565.565,0,0,1,.352-.079h.022l.023,0c.1.019.25.03.395.041.363.029.541.046.646.137l.092.081a.914.914,0,0,0,.14-.012,2.21,2.21,0,0,1,.686,0l.249.024a2.213,2.213,0,0,1,.241,0c.071.014.132.026.187.035l.278.026.043-.008a2.339,2.339,0,0,1,.589.036l.361.063c.141.023.286.056.435.091a5.145,5.145,0,0,0,.787.138.522.522,0,0,1,.29.135c.11.013.206.026.29.042l.014-.079.114.01.087.007.02-.045a3.26,3.26,0,0,0,.7.152,4.89,4.89,0,0,1,.762.153l.22.067-.04.114c.29.069.572.114.914.167.309.052.615.117.943.2l.013,0a2.136,2.136,0,0,1,.608.117c.153.041.315.085.451.111l.47.09-.1.081c.053.01.119.025.2.044a3.358,3.358,0,0,0,.525.1l.092-.045.052.054.449.2a5.064,5.064,0,0,0,.874.209,5.447,5.447,0,0,1,.9.213l1.781.573.011-.024c.049.026.1.052.157.078l.128.041-.05-.006c.373.167.853.329,1.254.465a9.952,9.952,0,0,1,1.465.617c.128.045.3.106.469.168.454.164.924.334,1.3.5l.33.147c.035.009.067.014.1.02a2.383,2.383,0,0,1,.742.268c.079.049.2.123.224.23l.16.062a4.681,4.681,0,0,1,.926.433l.1.066c.156.072.338.145.538.224.269.107.574.228.885.379l.126.061c.412.146.975.409,1.479.646l.413.193a2.808,2.808,0,0,1,.28.12l.049.032,1.485.687-.833-.185c.119.056.233.111.327.167l.368.219c.116.054.215.1.311.137a7.076,7.076,0,0,1,.735.356l.141.054a1.682,1.682,0,0,1,.5.27,1.416,1.416,0,0,0,.37.21l.064.028.123.173c.35.18,1.078.554,1.6.852l-.014.03c.267.142.567.321.912.54l.364.232-.1.04.052.038.888.616Z" transform="translate(-68.337 -125.185)"/><g transform="translate(28.413 0.872)"><path class="a" d="M144.22,125.278c-.055,0-.1,0-.087.011C144.191,125.291,144.216,125.285,144.22,125.278Z" transform="translate(-129.248 -125.169)"/><path class="a" d="M156.876,129.836l-.151-.141C156.7,129.706,156.8,129.772,156.876,129.836Z" transform="translate(-134.89 -127.148)"/><path class="a" d="M161.58,133.985l.042.046a.367.367,0,0,0,.057.019Z" transform="translate(-137.066 -129.07)"/><path class="a" d="M164.078,137.73a.247.247,0,0,1,.1.088c.01,0,.019-.018.024-.044C164.177,137.722,164.113,137.736,164.078,137.73Z" transform="translate(-138.186 -130.748)"/><path class="a" d="M167.4,150.378l0,.041a.1.1,0,0,0,.034.009Z" transform="translate(-139.675 -136.415)"/><path class="a" d="M137.4,125.424h.01C137.473,125.407,137.438,125.414,137.4,125.424Z" transform="translate(-126.233 -125.23)"/><path class="a" d="M117.672,155.64c-.008-.254.171.379.137,0C117.794,155.682,117.63,155.33,117.672,155.64Z" transform="translate(-117.39 -138.715)"/><path class="a" d="M128.18,129.387a.161.161,0,0,0,.061-.011S128.221,129.373,128.18,129.387Z" transform="translate(-122.101 -127.004)"/><path class="a" d="M125.166,131.967a.542.542,0,0,0-.114.1l.023-.01A.272.272,0,0,1,125.166,131.967Z" transform="translate(-120.699 -128.166)"/><path class="a" d="M122.545,134.874l.034-.025.04-.059Z" transform="translate(-119.576 -129.431)"/><path class="a" d="M144.971,139.051c-.007.092-.034.235-.068.241l-.008-.208-.018-.009c0-.011,0-.022,0-.033a13.819,13.819,0,0,0-.217-2.425l.01.01-.014-.036c-.02-.113-.039-.227-.062-.34.014.008.03.029.045.088,0-.236-.078-.192-.075-.395,0-.023.009-.014.018,0l-.083-.212c.03.038.054-.052.075.086-.05-.407-.229-.615-.2-.782l.014.031c-.14-.381-.119-.232-.175-.258-.029-.09-.06-.179-.091-.269l.037-.2-.082-.029c-.018-.055-.052-.165-.02-.155-.114-.181-.022.03-.093-.052l-.011-.028a2.078,2.078,0,0,0-.148-.449c-.073-.148-.129-.274-.094-.325-.09-.069.079.257-.082,0,.067-.125-.167-.3-.23-.554.087.044.164.277.1.022-.152-.1-.2-.46-.336-.631-.074.031-.272-.384-.482-.678a6.437,6.437,0,0,0-.536-.868h.017c-.109,0-.287-.3-.475-.472.043-.023.091,0,.2.087-.049-.062-.106-.119-.158-.178a.82.82,0,0,1-.229-.179l.086,0c-.221-.23-.472-.435-.738-.745-.038.018.03.157-.024.169-.05-.049-.1-.1-.152-.145.019,0,.045,0,.087.03a.743.743,0,0,1-.16-.129l.162.078c-.121-.141-.1-.034-.207-.137.031-.03-.06-.1-.021-.108.031.023.083.1.137.126a1.593,1.593,0,0,1-.279-.343c-.006.028-.039.044-.134-.035-.236-.21-.046-.113-.169-.254-.072-.034-.216-.178-.261-.13a.219.219,0,0,1-.087-.125c-.15-.076-.62-.454-.512-.286l.031.029-.023-.014c-.451-.289-.915-.635-1.378-.9l.011-.019a6,6,0,0,0-.862-.363c-.084-.041-.183-.132-.136-.138a5.589,5.589,0,0,1-.572-.243c.244.049-.067-.06.246.061a2.274,2.274,0,0,0-.686-.245c.128-.013-.2-.148-.348-.184l.2.114c-.162-.051-.3-.107-.439-.162l.1-.042a3.03,3.03,0,0,0-.87-.208,2.7,2.7,0,0,1-.752-.194c-.179.024.342.089.178.125a7.043,7.043,0,0,1-.676-.22c-.4-.1-.392.036-.814-.031.052.029.1.1-.222.109-.295-.025-.358-.128-.168-.139.072,0,.105.011.1.02.1,0,.225-.009.108-.044l-.041.024c-.146-.034-.558-.052-.46-.09-.227.013-.1.038.068.06a5.826,5.826,0,0,0-.995-.045c.063.012.121.039.059.042-.58,0-.253.062-.642.093-.225-.028.073-.1-.318-.045-.243-.015-.058-.067.037-.093a8.21,8.21,0,0,1-.882.066l.186-.05a2.7,2.7,0,0,1-.3.057l.116.035c-.112.008-.206.022-.208,0-.108.051.1.073-.116.153-.151,0-.442.089-.5.043.464-.062-.066-.064.324-.139a1.706,1.706,0,0,1-.28.043c-.018,0,.012-.019.042-.026-.451.045-.185.126-.635.238.048-.052-.123-.045-.195-.018.183-.046.1.041-.055.113a2.222,2.222,0,0,0-.458.137l.176-.03a2.414,2.414,0,0,1-.381.169c-.026-.023.169-.084.1-.072-.193.144-.511.111-.8.265-.15.027-.04-.063-.17-.035a7.231,7.231,0,0,0-.71.3c.121,0,.132-.019-.086.142l.545-.3-.328.242a4.717,4.717,0,0,1,.45-.235c-.161.108-.143.1-.047.1-.262.039-.436.261-.724.341l-.049-.121a2.216,2.216,0,0,0-.567.29,4.679,4.679,0,0,1-.616.405l.171-.077c-.039.084-.3.191-.45.306-.009-.045-.118,0-.2.023.026.02-.342.252-.333.353l-.241.109c-.389.264-.359.406-.693.7.068-.126-.1-.012.1-.241-.111.1-.217.185-.2.21-.083.039-.268.323-.4.385a.448.448,0,0,1-.144.213c-.02.006-.015-.016-.015-.016s-.164.206-.029.134a3.158,3.158,0,0,0-.624.6l-.3.336a1.561,1.561,0,0,1-.257.265l-.578.835c0-.024-.018-.013.015-.059-.246.328-.025.283-.3.653-.183.166.095-.23,0-.118-.15-.015-.287.482-.5.723l.025-.072c-.147.194-.206.552-.384.9,0,0,0-.023-.019-.011-.068.264-.2.754-.312,1.109-.013-.128.03-.169-.047-.122-.05.161.1-.015,0,.3-.064.093-.18.309-.238.325.023-.1.067-.2.1-.3-.139.126-.129.391-.179.55l-.028-.03c-.111.477-.029.5-.164,1.007l.039-.047c.019.294-.089.226-.075.517l-.1.07c-.007.189-.026.666-.04,1a4.515,4.515,0,0,1-.019-.839,3.567,3.567,0,0,0-.062.731.919.919,0,0,1,.02-.243,5.567,5.567,0,0,1,.03.906c-.165-.073-.1.964-.187,1.237a9.275,9.275,0,0,1,.067,1c.039.34.073.7.136,1.077.087-.294.038.222.163.15a1.835,1.835,0,0,1,.054.256l0-.038,0,.039h0l.057.543c-.006.135-.072-.158-.1-.135.088.385-.014.174.017.438.033-.065.1.114.14.338l-.02-.325c.2.513.034.489.282.993l-.1-.151a4.3,4.3,0,0,0,.6,1.193c.007.051,0,.128-.06.018a6.8,6.8,0,0,0,.523.945,5.618,5.618,0,0,1,.505.822l-.054-.026a1.681,1.681,0,0,1,.231.3c-.016,0-.058-.023-.024.026a2.222,2.222,0,0,1,.334.382l-.116-.093a4.075,4.075,0,0,0,.522.644c.183.162.367.3.561.5-.068.059.245.483.433.667l-.017,0a10.136,10.136,0,0,0,.8.67c.257.195.541.341.833.544a2.645,2.645,0,0,0,.317.3,5.685,5.685,0,0,0,.479.318c.35.214.72.463,1.038.629-.091-.063.051-.06.169-.013.142.091.445.14.384.209l-.053-.028a1.438,1.438,0,0,0,.651.358l.085-.093a3.852,3.852,0,0,0,1.144.455,3.182,3.182,0,0,1,.954.284,3.971,3.971,0,0,0,.549.047l-.02.06a8.829,8.829,0,0,0,1.277.183l-.123.038c.33.021.429-.158.728-.146l.087.1a6.246,6.246,0,0,0,1.713-.036c-.008.014-.023.042-.115.05.272.014,1.045-.061.931-.169.018.078.587-.075.88-.17l-.034.072a1.883,1.883,0,0,1,.584-.275c.085-.014.085.029-.029.042.285-.04.2-.112.544-.167l-.114.07a.707.707,0,0,0,.4-.177,1.247,1.247,0,0,1,.587-.139.644.644,0,0,1,.328-.188c.03.012-.025.045-.052.062.485-.118.638-.362.972-.443a.069.069,0,0,0,.067.008c-.353.168-.639.3-.614.285.022.052.313-.077.116.1a4.562,4.562,0,0,1,.855-.533.16.16,0,0,1,.046,0l-.026.019a.729.729,0,0,0,.171-.094c.089-.043.146-.07.227-.118.055.022.325-.167.461-.248-.044-.046.138-.145-.055-.088.024-.009-.022.022-.109.078a.565.565,0,0,0-.055.04l.007-.01-.333.207a.908.908,0,0,1,.354-.243c.049-.076.1-.157.135-.2.23-.035.609-.217.68-.218.359-.326.915-.682,1.046-.991.091-.1.138-.081.188-.1a1.749,1.749,0,0,0-.142.165c.183-.206.592-.554.583-.656.277-.208-.083.19.243-.151l-.025.065a4.46,4.46,0,0,0,.805-.937,4.658,4.658,0,0,1,.783-1.049c-.051.051-.076.077-.1.081a15.9,15.9,0,0,0,1.681-3.146,1.349,1.349,0,0,0,.13-.554l.088-.047c.011-.116.01-.236.015-.353a2.454,2.454,0,0,1,.215-.647,3.2,3.2,0,0,0,.126-.34,1.825,1.825,0,0,0,.038-.421l-.056.071c.042-.217.079-.695.125-.652a.2.2,0,0,1,0-.16l.036,0a3.469,3.469,0,0,0-.007-.546c.046-.418.134.077.172-.541C145.065,139.388,145,138.965,144.971,139.051Zm-6.749,12.034.007-.013a.1.1,0,0,1-.02.048c-.086.062-.122.07-.141.067Z" transform="translate(-117.166 -125.08)"/><path class="a" d="M155.47,171.936l.034-.026-.061.02-.022.036Z" transform="translate(-134.307 -146.063)"/><path class="a" d="M157.108,130.049a.14.14,0,0,1,.018.025.132.132,0,0,1-.008-.015Z" transform="translate(-135.063 -127.306)"/><path class="a" d="M165.752,140.921c-.112-.508-.009.117-.192-.383.049.126.084.258.127.386C165.685,140.849,165.683,140.749,165.752,140.921Z" transform="translate(-138.85 -132.006)"/><path class="a" d="M164.643,138.351c-.084-.113-.108-.137-.046.015C164.7,138.558,164.627,138.348,164.643,138.351Z" transform="translate(-138.403 -130.985)"/><path class="a" d="M152.7,127.361l.043-.042C152.585,127.253,152.731,127.338,152.7,127.361Z" transform="translate(-133.073 -126.072)"/><path class="a" d="M147.913,125.619l-.279-.05.205.04Z" transform="translate(-130.817 -125.299)"/><path class="a" d="M122.9,134.229l.086,0C123.052,134.142,123.006,134.072,122.9,134.229Z" transform="translate(-119.734 -129.138)"/><path class="a" d="M117.758,145.1a.548.548,0,0,0-.09.363C117.694,145.311,117.743,145.17,117.758,145.1Z" transform="translate(-117.389 -134.048)"/><path class="a" d="M133.44,174.144l.245.069-.11-.044Z" transform="translate(-124.458 -147.064)"/></g><circle class="an" cx="3.254" cy="3.254" r="3.254" transform="translate(39.124 11.582)"/><g transform="translate(17.78 12.298)"><path class="a" d="M178.1,149.565l.009.034C178.124,149.594,178.11,149.58,178.1,149.565Z" transform="translate(-133.836 -147.477)"/><path class="a" d="M177.514,148.744l-.006-.009h-.017Z" transform="translate(-133.563 -147.105)"/><path class="a" d="M176.62,145.993h.007l.005-.017Z" transform="translate(-133.172 -145.869)"/><path class="a" d="M185.137,153.679c-.014.047-.054-.052-.065.015C185.082,153.685,185.135,153.733,185.137,153.679Z" transform="translate(-136.959 -149.316)"/><path class="a" d="M182.079,153.478l0,0c-.006,0-.012,0-.018-.01C182.066,153.47,182.066,153.475,182.079,153.478Z" transform="translate(-135.609 -149.224)"/><path class="a" d="M182.615,153.782l0-.009-.011,0Z" transform="translate(-135.852 -149.361)"/><path class="a" d="M181.409,150.678a1.142,1.142,0,0,1-.065-.258,1.424,1.424,0,0,0-.044-.211c-.05.062-.013-.035-.074-.008-.013-.026-.015-.037-.012-.041h0l.01-.1c.012-.027.023.022.036.014-.015-.063.019-.035.021-.082-.02.017-.04-.009-.044-.047l-.012.06c-.065-.072.027-.093-.04-.166l.03.019c-.028-.039-.065-.161-.133-.181,0-.01.017-.028.029-.011-.037-.107-.156-.2-.165-.291h.018c-.014-.016-.044-.018-.041-.048.007,0,.018,0,.014-.009s-.051-.035-.055-.063l.027.012c-.033-.105-.119-.124-.173-.195.042-.024.013-.105,0-.146l.007,0a1.158,1.158,0,0,0-.229-.246c0-.089-.121-.213-.167-.323,0,.019-.032.02-.049.007s-.072-.039-.034-.063l0,.008c0-.007,0-.013,0-.019a.07.07,0,0,0,.023-.034c-.031,0-.028,0-.022-.046l-.014.027-.032-.041a.058.058,0,0,1,.029-.03l.051.041c.067-.041.05-.123.118-.19l-.026.018c-.014-.025.031-.049.039-.08.017.014.034,0,.052,0-.014-.008.04-.056.009-.087l.047-.019c.052-.057,0-.107.041-.163.008.031.039.012.027.062.013-.02.028-.037.016-.045.019,0,.012-.073.041-.081,0-.014-.021-.029,0-.051,0,0,.009.006.009.006s.009-.044-.023-.036c.1-.029.1-.182.182-.21.019-.05.043-.11.063-.153,0,.006.01,0,0,.012.049-.05-.036-.065.017-.121.049-.019,0,.044.022.029.069.022.031-.086.091-.115l0,.013c.039-.025.015-.1.046-.155a.013.013,0,0,0,.01,0,.46.46,0,0,1,.016-.2c.019.028,0,.031.035.031.006-.027-.046-.009-.033-.063.02-.011.046-.044.077-.038l-.016.05c.046-.012.022-.064.038-.087l.015.009c.021-.077-.02-.092.009-.172l-.015,0c-.028-.057.034-.03.018-.084h.046a1.018,1.018,0,0,1,0-.184c.028.026.017.129.026.163,0-.017.033-.13.014-.15a.086.086,0,0,1,0,.055.259.259,0,0,1-.01-.172c.062-.025.074-.118.1-.212-.042.006-.077.007-.081-.016a1.156,1.156,0,0,1-.258.065,1.422,1.422,0,0,0-.211.044c.062.05-.035.012-.007.075-.026.013-.037.014-.041.011h0l-.1-.01c-.026-.012.022-.023.014-.036-.063.016-.035-.018-.082-.021.017.02-.01.04-.047.044l.059.012c-.072.065-.093-.027-.166.04l.019-.03c-.039.028-.161.064-.181.132-.01,0-.028-.016-.012-.029-.107.037-.2.156-.291.165v-.019c-.016.014-.018.044-.049.041,0-.007,0-.018-.009-.015s-.035.051-.064.056l.012-.028c-.106.033-.124.119-.2.174-.024-.042-.105-.013-.146,0l0-.007a1.146,1.146,0,0,0-.246.229c-.09,0-.213.121-.323.167.019,0,.02.032.007.048s-.039.072-.063.035l.008-.006h0l.007,0c-.046-.009-.13-.015-.162-.055a.029.029,0,0,1,0-.012h.006a.046.046,0,0,0-.028-.015.143.143,0,0,0-.029-.031c.009-.023-.04-.045-.061-.061-.016.026-.04,0-.03.042,0,0,.006,0,.021.009a.038.038,0,0,0,.01,0l0,0,.053.035c-.025,0-.05,0-.063-.031l-.058.02c0-.055-.045-.113-.038-.14-.074-.03-.159-.093-.232-.071-.023-.006-.013-.028-.014-.04.014,0,.026.011.036.008-.045-.012-.115-.066-.145-.036-.038-.045.046-.016-.023-.05l.015-.006c-.1-.134-.263-.034-.37-.184.008.01.012.015.011.022-.153-.123-.366-.144-.519-.266-.046-.03-.061-.009-.1,0v-.035l-.066.017c-.083,0-.1-.123-.217-.1l.006.025c-.033-.015-.113-.019-.1-.042,0,0-.018.019-.028,0l0-.017-.093.007c-.064-.029.027-.065-.071-.092-.039,0-.115.027-.1.041s.035.019.033.036h-.035l0,.009h0l0,.008c-.017.042-.038.084.025.131l.008,0c.012.047.025.094.038.141h0c.01.035.018.073.029.108l-.013,0,.016.012c0,.014.007.029.012.043a.017.017,0,0,1-.019-.008c-.01.043.025.027.011.065,0,0,0,0-.008,0l.024.03c-.011,0-.029.017-.029-.007,0,.072.067.089.043.124l-.005,0c.037.065.039.026.068.033l.012.032-.045.055.034,0c0,.009.007.028-.007.029.034.024.011-.011.039,0-.011.054.061.109.017.14.03,0,0-.047.036-.01-.047.036.031.047.024.1-.032,0-.034-.042-.041.007.056,0,.024.078.048.106.012,0,.02,0,.028.009a.033.033,0,0,1-.028-.009.067.067,0,0,0-.018.014c0,.009.032,0,.046,0,.018.02.033.066.059.1-.013,0,.031.108.046.163l-.007,0c.04-.01.061.043.088.075a.044.044,0,0,1-.054-.006l.019.034a.064.064,0,0,1,.044.028l-.031.007c.028.044.083.072.1.139.018-.008.031-.044.054-.05.006.009.01.019.017.029a.023.023,0,0,1-.026,0s.022.012.022.025l-.036-.01c.005.032.026,0,.036.024-.019.011,0,.023-.02.029s0-.022-.016-.026a.115.115,0,0,1,.01.078.025.025,0,0,1,.038,0c.029.042-.013.029-.006.06.019,0,.024.039.052.022.008.012,0,.023-.007.033.027.014.073.1.084.056l0-.007,0,0c.075.054.088.159.15.221l-.009.006c.041.035.074.088.116.1.009.012.006.04-.008.043.015.013.025.018.034.027-.038.045-.033.1-.081.117a.022.022,0,0,0-.02,0,.574.574,0,0,1,.071-.084c-.022-.018-.058.02-.063-.036-.009.046-.015.13-.055.162h-.012V148.4a.044.044,0,0,0-.015.028.159.159,0,0,0-.032.028c-.022-.009-.045.041-.061.061.026.017,0,.041.042.03,0,0,0-.006.009-.021a.031.031,0,0,0,0-.011v0l.036-.052c0,.025,0,.05-.031.063l.02.058c-.055,0-.113.046-.14.038-.03.075-.094.16-.071.232-.006.023-.028.013-.04.015,0-.014.01-.026.007-.037-.011.046-.066.115-.036.145-.044.039-.015-.046-.05.023l0-.015c-.134.1-.034.262-.184.37.01-.008.014-.012.022-.011-.122.153-.143.365-.265.519-.031.046-.009.061,0,.1h-.035l.017.066c0,.083-.123.1-.1.217l.025-.006c-.015.033-.019.113-.043.1,0,0,.019.018,0,.028l-.017,0,.007.093c-.029.063-.065-.028-.092.071,0,.038.026.115.041.1s.019-.035.036-.032l0,.035.009,0v0l.008,0c.043.017.084.038.131-.025l0-.009.141-.037h0c.036-.009.073-.018.108-.028l0,.013.012-.015.042-.012a.017.017,0,0,1-.008.019c.042.01.026-.025.065-.011,0,0,0,0,0,.008l.03-.025c0,.012.016.029-.008.03.072,0,.089-.067.125-.043l0,0c.065-.037.026-.038.033-.068l.032-.012.055.045,0-.034c.009,0,.027-.007.029.007.024-.034-.011-.012,0-.039.054.011.109-.061.14-.016,0-.03-.047,0-.01-.036.036.047.047-.032.1-.025,0,.033-.042.034.007.041,0-.056.078-.025.106-.049,0-.011,0-.019.009-.028a.034.034,0,0,1-.009.028.058.058,0,0,0,.013.018c.009,0,0-.032,0-.046.02-.018.066-.033.1-.06,0,.014.108-.031.163-.045l0,.007c-.009-.04.043-.061.075-.088a.045.045,0,0,1-.005.054l.034-.019c0-.016.009-.027.028-.044l.007.031c.044-.028.072-.083.139-.1-.008-.018-.044-.031-.05-.054l.029-.017a.023.023,0,0,1,0,.026s.012-.022.025-.023l-.01.036c.031-.006,0-.026.024-.037.011.019.023,0,.029.02s-.023,0-.026.015a.118.118,0,0,1,.078-.009.025.025,0,0,1,0-.038c.043-.029.029.013.061.006,0-.019.038-.024.021-.052.013-.008.024,0,.033.007.014-.027.1-.073.057-.085l-.007,0,0,0c.054-.075.159-.088.221-.151l.006.009c.034-.04.088-.074.1-.115a.033.033,0,0,1,.028,0s0,0,0,.008c.062.016.033.061.095.082,0-.032,0-.029.045-.023l-.087-.045,0,0,.073.009c-.024-.019-.06-.026-.072-.041.029,0,.03,0,.031-.01l.006,0c.014.045.076.028.1.075l-.04.051c.041.067.123.051.189.119l-.018-.027c.025-.014.049.031.08.04-.015.016,0,.033,0,.052.008-.014.056.041.087.009l.019.047c.057.052.106,0,.163.042-.031.008-.012.039-.062.026.02.014.037.029.045.016,0,.019.072.012.081.041.014,0,.029-.02.051,0a.012.012,0,0,1-.006.009c.006-.009.044.01.036-.023.029.1.182.1.21.182.05.019.11.044.153.064-.006,0-.005.009-.012,0,.05.049.065-.037.121.017.019.049-.044,0-.029.022-.023.069.086.031.114.091H180.2c.025.039.1.015.154.045a.015.015,0,0,0,0,.01.461.461,0,0,1,.2.017c-.028.019-.031,0-.031.034.027.006.009-.045.063-.033.011.021.043.046.038.077l-.049-.016c.012.046.064.022.087.038l-.009.015c.077.021.092-.019.172.009l0-.015c.057-.027.03.035.083.018v.046a1.079,1.079,0,0,1,.185,0c-.026.028-.129.017-.163.027.017.006.129.033.15.015a.09.09,0,0,1-.055-.006.263.263,0,0,1,.172-.009c.025.062.118.074.212.1C181.387,150.717,181.386,150.682,181.409,150.678Zm-3.987-2.19,0,0a.044.044,0,0,1-.009-.014c.007-.017.015-.018.021-.015Zm1.4-1.575.036.03-.02.015a.065.065,0,0,1-.02-.024A.025.025,0,0,0,178.827,146.913Zm-.124-.124,0,0a.046.046,0,0,1,.015-.009c.016.007.017.015.015.022Zm-2.025-.372s0,0,.006,0l0,.013S176.682,146.423,176.678,146.417Zm.373,4.095s0,0,0-.006l.013,0S177.056,150.509,177.051,150.512Zm1.873-.971v-.007l0,0Z" transform="translate(-133.101 -145.782)"/><path class="a" d="M180.449,147.62l-.007,0,0,.012.01,0Z" transform="translate(-134.884 -146.604)"/><path class="a" d="M178.1,149.536v-.006l0,0Z" transform="translate(-133.833 -147.461)"/><path class="a" d="M176.979,147.557l-.017-.064c-.007.015-.015.035-.03.008C176.931,147.592,176.95,147.475,176.979,147.557Z" transform="translate(-133.312 -146.549)"/><path class="a" d="M177.1,147.962c.019.016.024.019.022-.009C177.1,147.923,177.107,147.96,177.1,147.962Z" transform="translate(-133.387 -146.749)"/><path class="a" d="M178.531,150.24l-.024.014C178.527,150.274,178.515,150.248,178.531,150.24Z" transform="translate(-134.017 -147.779)"/><path class="a" d="M182.487,153.751l.01-.034C182.478,153.713,182.455,153.745,182.487,153.751Z" transform="translate(-135.794 -149.337)"/><path class="a" d="M184.372,154.542c-.023-.009-.042-.029-.055-.029A.043.043,0,0,0,184.372,154.542Z" transform="translate(-136.621 -149.694)"/><path class="a" d="M180.162,153.093l.034-.009C180.191,153.073,180.177,153.086,180.162,153.093Z" transform="translate(-134.759 -149.052)"/><path class="a" d="M179.341,153.676l-.009,0v.017Z" transform="translate(-134.387 -149.319)"/><path class="a" d="M176.59,154.578v-.007l-.017-.005Z" transform="translate(-133.151 -149.718)"/><path class="a" d="M184.276,146.018c.047.014-.052.055.015.065C184.282,146.073,184.33,146.02,184.276,146.018Z" transform="translate(-136.598 -145.888)"/><path class="a" d="M184.075,149.113h0c0,.006,0,.012-.01.018C184.067,149.126,184.072,149.126,184.075,149.113Z" transform="translate(-136.506 -147.275)"/><path class="a" d="M184.379,148.581l-.009,0,0,.011Z" transform="translate(-136.643 -147.036)"/><path class="a" d="M178.216,150.747l0,.007.012,0,0-.01Z" transform="translate(-133.886 -148.003)"/><path class="a" d="M180.133,153.11h-.006l0,0Z" transform="translate(-134.743 -149.065)"/><path class="a" d="M178.09,154.208c.015.007.035.015.008.03.091,0-.026-.018.056-.047Z" transform="translate(-133.831 -149.549)"/><path class="a" d="M178.558,154.089c.015-.02.019-.024-.009-.023C178.519,154.087,178.556,154.082,178.558,154.089Z" transform="translate(-134.031 -149.494)"/><path class="a" d="M184.347,148.7l-.034-.01C184.309,148.709,184.342,148.732,184.347,148.7Z" transform="translate(-136.619 -147.085)"/><path class="a" d="M185.139,146.791c-.009.023-.029.042-.029.055A.044.044,0,0,0,185.139,146.791Z" transform="translate(-136.976 -146.234)"/><path class="a" d="M99.544,149.89l.009.034C99.564,149.919,99.551,149.905,99.544,149.89Z" transform="translate(-98.637 -147.623)"/><path class="a" d="M98.954,149.069l0-.009h-.017Z" transform="translate(-98.363 -147.251)"/><path class="a" d="M98.061,146.318h.007l0-.017Z" transform="translate(-97.973 -146.015)"/><path class="a" d="M106.578,154c-.014.047-.054-.052-.065.015C106.523,154.01,106.575,154.058,106.578,154Z" transform="translate(-101.76 -149.462)"/><path class="a" d="M103.519,153.8V153.8a.016.016,0,0,1-.018-.009C103.506,153.8,103.507,153.8,103.519,153.8Z" transform="translate(-100.41 -149.37)"/><path class="a" d="M104.056,154.107l0-.009-.011,0Z" transform="translate(-100.652 -149.506)"/><path class="a" d="M102.784,150.745a1.439,1.439,0,0,0-.044-.211c-.05.062-.013-.035-.075-.008-.012-.026-.014-.037-.011-.041h0l.01-.1c.012-.026.023.022.036.014-.016-.063.019-.035.021-.081-.019.016-.04-.01-.044-.048l-.012.06c-.065-.072.027-.093-.039-.166l.03.019c-.028-.04-.064-.162-.132-.182,0-.01.016-.028.029-.011-.037-.107-.156-.2-.165-.291h.019c-.014-.016-.044-.018-.041-.048.007,0,.018,0,.015-.009s-.051-.035-.056-.063l.028.012c-.033-.105-.119-.124-.174-.195.042-.024.013-.105,0-.146l.007,0a1.186,1.186,0,0,0-.229-.246c0-.089-.121-.213-.168-.323,0,.02-.031.02-.048.007s-.072-.039-.034-.063l0,.008c0-.007,0-.013,0-.019a.074.074,0,0,0,.023-.034c-.032,0-.029,0-.023-.046l-.014.026-.031-.041a.055.055,0,0,1,.028-.03l.051.041c.067-.041.051-.123.119-.19l-.027.018c-.014-.025.031-.049.04-.08.016.015.034,0,.052,0-.014-.008.041-.056.009-.087l.047-.019c.052-.057,0-.106.042-.163.008.031.039.012.027.062.014-.02.029-.037.016-.045.019,0,.012-.073.041-.081,0-.014-.02-.028,0-.051a.013.013,0,0,1,.009.006c-.009-.006.009-.044-.024-.036.1-.029.1-.182.183-.21.019-.05.043-.11.063-.153,0,.006.009.006,0,.012.049-.05-.037-.065.017-.121.049-.019,0,.044.022.029.069.022.031-.086.091-.115v.013c.039-.025.015-.1.045-.154a.015.015,0,0,0,.01,0,.461.461,0,0,1,.017-.2c.019.028,0,.031.034.031.006-.027-.045-.009-.033-.063.021-.011.046-.043.077-.038l-.016.05c.046-.012.022-.064.038-.087l.015.009c.021-.078-.019-.092.009-.172l-.015,0c-.027-.057.035-.03.018-.084h.046a1.068,1.068,0,0,1,0-.184c.028.026.017.129.026.163.006-.017.033-.13.015-.15a.086.086,0,0,1-.006.055.263.263,0,0,1-.009-.172c.062-.025.075-.118.1-.212-.042.006-.077.006-.081-.017a1.144,1.144,0,0,1-.258.065,1.429,1.429,0,0,0-.211.044c.062.05-.035.013-.008.075-.026.013-.037.015-.041.012h0l-.1-.01c-.026-.012.022-.023.014-.036-.063.015-.035-.019-.082-.022.017.02-.009.04-.047.044l.06.012c-.072.065-.093-.027-.166.04l.019-.03c-.039.028-.161.065-.181.132-.01,0-.028-.016-.011-.029-.107.037-.2.156-.291.165v-.019c-.016.014-.018.044-.048.041,0-.007,0-.018-.009-.015s-.035.051-.063.056l.012-.028c-.105.033-.124.119-.195.174-.024-.042-.105-.013-.146,0l0-.007a1.174,1.174,0,0,0-.246.229c-.089,0-.213.121-.323.167.019,0,.02.032.007.049s-.039.072-.063.034l.008-.006h0l.007,0c-.046-.009-.13-.015-.162-.055a.043.043,0,0,1,0-.012h.006a.044.044,0,0,0-.028-.015.142.142,0,0,0-.028-.031c.009-.023-.041-.045-.061-.061-.017.027-.041,0-.03.042,0,0,.006,0,.02.009a.064.064,0,0,0,.01,0h0l.052.035c-.025,0-.05,0-.063-.031l-.058.02c0-.056-.045-.113-.038-.141-.075-.03-.16-.093-.232-.071-.023-.006-.013-.028-.015-.04.014,0,.026.011.037.008-.046-.012-.115-.066-.145-.036-.039-.045.046-.016-.023-.05l.015-.006c-.1-.134-.263-.033-.37-.184.008.01.012.015.01.022-.153-.122-.365-.144-.519-.266-.046-.03-.06-.009-.1,0v-.035l-.066.017c-.083,0-.1-.123-.217-.1l.006.025c-.033-.015-.113-.019-.1-.042,0,0-.017.019-.028,0l0-.017-.093.007c-.063-.028.028-.065-.07-.092-.039,0-.115.026-.1.041s.035.019.033.036l-.035,0,0,.009h0l0,.008c-.017.043-.037.084.025.131l.009,0c.012.048.024.094.038.141h0c.01.036.018.073.029.108l-.013,0,.015.012c0,.014.007.029.012.043a.018.018,0,0,1-.019-.008c-.01.043.025.027.012.065,0,0-.006,0-.008,0l.025.03c-.012,0-.029.017-.03-.007,0,.072.067.089.043.124l0,0c.037.064.038.026.068.033l.012.031-.045.055.035,0c0,.009.007.028-.007.029.034.024.012-.011.039,0-.011.054.061.109.016.14.03,0,0-.047.036-.01-.047.036.032.047.025.1-.033,0-.034-.041-.041.008.056,0,.025.078.049.105a.023.023,0,0,1,.028.009.032.032,0,0,1-.028-.009.068.068,0,0,0-.018.014c0,.009.032,0,.046,0,.019.02.033.066.06.1-.014,0,.031.108.045.163l-.007,0c.04-.01.061.043.088.075a.044.044,0,0,1-.054-.006l.019.034a.064.064,0,0,1,.044.028l-.031.007c.027.044.082.072.1.139.018-.008.031-.044.054-.05.006.009.011.019.017.029a.023.023,0,0,1-.026,0s.022.012.023.025l-.036-.01c.006.031.026,0,.037.024-.019.011,0,.023-.02.029s0-.022-.015-.026a.119.119,0,0,1,.01.078.024.024,0,0,1,.038,0c.029.042-.013.029-.006.06.019,0,.024.039.052.022.008.013,0,.023-.007.033.026.014.073.1.085.057l0-.007,0,0c.075.054.088.159.151.221l-.009.007c.04.034.075.088.115.1.009.012.006.04-.008.043.014.013.025.018.034.027-.038.045-.033.1-.081.117a.023.023,0,0,0-.02,0,.618.618,0,0,1,.071-.084c-.022-.018-.058.02-.063-.036-.009.046-.015.13-.055.162h-.012v-.006a.047.047,0,0,0-.015.028.141.141,0,0,0-.031.028c-.023-.009-.045.041-.061.061.026.017,0,.041.042.03,0,0,0-.006.009-.021a.038.038,0,0,0,0-.01l0,0,.035-.052c0,.025,0,.05-.031.063l.02.058c-.056,0-.113.046-.141.038-.03.075-.093.16-.071.233-.006.023-.028.012-.04.014,0-.014.011-.027.008-.036-.012.045-.066.115-.036.145-.045.038-.016-.046-.05.023l-.006-.015c-.134.1-.033.263-.184.37.01-.008.015-.012.022-.011-.122.153-.144.366-.266.519-.03.046-.009.061,0,.1H98.1l.017.066c0,.083-.123.1-.1.217l.025-.006c-.015.033-.019.113-.042.1,0,0,.019.018,0,.028l-.017,0,.007.093c-.029.064-.065-.027-.092.071,0,.039.026.115.041.1s.019-.035.036-.033l0,.035.009,0v0l.008,0c.043.017.084.038.131-.025l0-.008c.048-.012.094-.025.141-.038h0c.035-.01.073-.018.108-.029l0,.013.012-.015.043-.012a.018.018,0,0,1-.008.019c.042.01.027-.025.065-.011,0,0,0,0,0,.008l.03-.025c0,.012.017.029-.007.03.072,0,.089-.067.124-.043l0,0c.065-.036.027-.038.034-.068l.031-.012.055.045,0-.034c.009,0,.028-.007.029.007.024-.034-.011-.011,0-.039.054.011.109-.061.14-.017,0-.03-.047,0-.01-.036.036.047.047-.031.1-.025,0,.033-.041.034.007.041,0-.056.078-.024.106-.049,0-.011,0-.019.009-.028a.031.031,0,0,1-.009.028.061.061,0,0,0,.014.018c.009,0,0-.032,0-.046.02-.018.066-.033.1-.06,0,.014.108-.031.163-.045l0,.007c-.01-.04.043-.061.075-.088a.044.044,0,0,1-.006.054l.034-.019a.067.067,0,0,1,.028-.044l.007.031c.044-.028.072-.083.139-.1-.008-.018-.044-.031-.05-.054l.029-.017a.023.023,0,0,1,0,.026s.012-.022.025-.022l-.011.036c.032-.006,0-.026.024-.036.011.019.023,0,.029.02s-.022,0-.026.015a.118.118,0,0,1,.078-.009.025.025,0,0,1,0-.038c.042-.029.029.013.06.006,0-.019.039-.024.022-.052.013-.008.023,0,.033.007.014-.026.1-.073.057-.085l-.007,0,0,0c.054-.075.159-.088.221-.151l.007.009c.034-.041.088-.075.1-.116a.034.034,0,0,1,.028,0s0,0,0,.008c.062.016.033.061.1.082,0-.032,0-.029.045-.023l-.088-.045,0,0,.073.009c-.024-.019-.061-.026-.072-.041.029,0,.031,0,.031-.011l.006,0c.014.045.076.028.1.075l-.04.051c.04.067.123.051.189.119l-.018-.027c.025-.014.049.031.081.04-.015.016,0,.034,0,.052.008-.014.056.041.088.009l.018.047c.057.052.107,0,.163.042-.031.008-.012.039-.062.027.02.014.037.029.045.016,0,.019.073.012.081.041.014,0,.029-.02.051,0,0,.006-.006.009-.006.009s.044.009.036-.024c.029.1.182.1.211.183.05.019.109.043.153.063-.006,0,0,.009-.012,0,.05.049.065-.037.121.017.019.049-.044,0-.029.022-.022.069.086.032.115.091l-.013,0c.025.039.1.015.155.045,0,0-.006,0,0,.01a.46.46,0,0,1,.2.017c-.028.019-.031,0-.03.034.027.006.009-.045.062-.033.011.021.044.046.038.077l-.049-.017c.011.046.063.022.087.038l-.009.015c.077.022.092-.019.172.01l0-.015c.057-.027.03.035.084.018v.046a1.129,1.129,0,0,1,.184,0c-.026.028-.129.017-.163.027.017,0,.13.033.15.014a.086.086,0,0,1-.055-.006.263.263,0,0,1,.172-.009c.025.062.118.075.212.1-.006-.042-.006-.077.016-.081A1.173,1.173,0,0,1,102.784,150.745Zm-3.921-1.932,0,0a.053.053,0,0,1-.009-.015c.007-.017.015-.018.022-.015Zm1.4-1.575.037.03-.02.015a.067.067,0,0,1-.021-.025A.023.023,0,0,0,100.267,147.238Zm-.124-.124,0,0a.044.044,0,0,1,.014-.009c.017.007.018.015.016.022Zm-2.024-.372s0,0,.006,0l.006.014S98.122,146.748,98.119,146.742Zm.372,4.1s0,0,0-.006l.013,0S98.5,150.834,98.491,150.838Zm1.873-.972v-.007l0,0Z" transform="translate(-97.901 -145.928)"/><path class="a" d="M101.889,147.945l-.007,0,0,.012.01,0Z" transform="translate(-99.685 -146.75)"/><path class="a" d="M99.537,149.862v-.006l0,0Z" transform="translate(-98.633 -147.607)"/><path class="a" d="M98.419,147.883l-.018-.065c-.007.015-.015.035-.03.009C98.371,147.917,98.39,147.8,98.419,147.883Z" transform="translate(-98.112 -146.694)"/><path class="a" d="M98.54,148.286c.02.016.024.02.023-.009C98.542,148.248,98.547,148.285,98.54,148.286Z" transform="translate(-98.187 -146.895)"/><path class="a" d="M99.971,150.565l-.024.014C99.967,150.6,99.956,150.573,99.971,150.565Z" transform="translate(-98.818 -147.925)"/><path class="a" d="M103.928,154.076l.009-.034C103.918,154.038,103.9,154.07,103.928,154.076Z" transform="translate(-100.594 -149.483)"/><path class="a" d="M105.812,154.867c-.023-.009-.042-.029-.055-.029A.043.043,0,0,0,105.812,154.867Z" transform="translate(-101.421 -149.84)"/><path class="a" d="M101.6,153.419l.034-.009C101.631,153.4,101.617,153.412,101.6,153.419Z" transform="translate(-99.559 -149.198)"/><path class="a" d="M100.781,154l-.009,0v.017Z" transform="translate(-99.187 -149.465)"/><path class="a" d="M98.03,154.9V154.9l-.017-.005Z" transform="translate(-97.951 -149.863)"/><path class="a" d="M105.716,146.343c.047.014-.052.055.015.065C105.722,146.4,105.77,146.345,105.716,146.343Z" transform="translate(-101.398 -146.033)"/><path class="a" d="M105.516,149.438h-.006a.016.016,0,0,1-.009.018C105.508,149.451,105.513,149.451,105.516,149.438Z" transform="translate(-101.306 -147.42)"/><path class="a" d="M105.819,148.907l-.009,0,0,.011Z" transform="translate(-101.443 -147.182)"/><path class="a" d="M99.657,151.072l0,.007.012,0,0-.01Z" transform="translate(-98.687 -148.149)"/><path class="a" d="M101.573,153.435h-.006l0,0Z" transform="translate(-99.544 -149.211)"/><path class="a" d="M99.53,154.533c.015.007.035.015.009.03.091,0-.026-.018.056-.047Z" transform="translate(-98.631 -149.695)"/><path class="a" d="M100,154.414c.016-.019.02-.024-.009-.023C99.96,154.412,100,154.407,100,154.414Z" transform="translate(-98.832 -149.64)"/><path class="a" d="M105.788,149.025l-.034-.01C105.75,149.034,105.782,149.057,105.788,149.025Z" transform="translate(-101.419 -147.231)"/><path class="a" d="M106.579,147.117c-.009.023-.029.041-.029.055A.043.043,0,0,0,106.579,147.117Z" transform="translate(-101.776 -146.38)"/></g></g><g transform="translate(76.614 28.664)"><path class="ao" d="M182.951,85.6h0a5.277,5.277,0,0,0,3.283,3.283h0a5.277,5.277,0,0,0-3.283,3.283h0a5.277,5.277,0,0,0-3.283-3.283h0a5.277,5.277,0,0,0,3.283-3.283Z" transform="translate(-169.001 -74.936)"/><line class="ap" y2="9.301" transform="translate(13.948 0)"/><line class="ap" y2="9.301" transform="translate(13.948 18.594)"/><line class="ap" x1="9.301" transform="translate(18.594 13.948)"/><line class="ap" x1="9.301" transform="translate(0 13.948)"/><line class="ap" x1="3.288" y1="3.288" transform="translate(17.233 17.233)"/><line class="ap" x1="3.288" y1="3.288" transform="translate(7.374 7.374)"/><line class="ap" x1="3.288" y2="3.288" transform="translate(17.233 7.374)"/><line class="ap" x1="3.288" y2="3.288" transform="translate(7.374 17.233)"/></g></g></svg>